<svg xmlns="http://www.w3.org/2000/svg" width="18.666" height="18.667" viewBox="0 0 18.666 18.667">
  <g id="baby" transform="translate(-0.006 0)">
    <path id="Path_18099" data-name="Path 18099" d="M15.81,11.907a2.874,2.874,0,0,0,2.863-2.573,2.873,2.873,0,0,0-2.86-2.573,6.944,6.944,0,0,0-1.259-2.042V.548a.547.547,0,0,0-.715-.521L10.31,1.164a2,2,0,0,0-1.942,0L4.84.027a.547.547,0,0,0-.715.521V4.719A7.023,7.023,0,0,0,2.867,6.761,2.874,2.874,0,0,0,.006,9.334a2.874,2.874,0,0,0,2.861,2.573,6.947,6.947,0,0,0,2.585,3.207,5.992,5.992,0,0,0-2,2.836.547.547,0,1,0,1.039.341A4.945,4.945,0,0,1,6.511,15.7a6.967,6.967,0,0,0,5.754-.047,4.942,4.942,0,0,1,2.1,2.639A.547.547,0,1,0,15.4,17.95a5.988,5.988,0,0,0-2.087-2.9,7,7,0,0,0,2.5-3.141Zm1.769-2.573c0,.639-.6,1.2-1.419,1.408a7,7,0,0,0,0-2.816c.817.209,1.419.769,1.419,1.408Zm-6.435-7.29L13.459,1.3V4.215l-2.209-.69A2,2,0,0,0,11.144,2.044Zm-.893.873a.911.911,0,1,1-.911-.911.907.907,0,0,1,.911.911ZM5.219,1.3l2.315.746a2,2,0,0,0-.106,1.481l-2.209.69ZM1.1,9.334c0-.639.6-1.2,1.419-1.408a7.015,7.015,0,0,0,0,2.816C1.7,10.533,1.1,9.973,1.1,9.334ZM9.339,15.2a5.868,5.868,0,0,1-2.61-.61l-.022-.011A5.874,5.874,0,0,1,4.941,5.448L8.072,4.47a2,2,0,0,0,2.535,0l3.131.979a5.869,5.869,0,0,1-4.4,9.755Z" transform="translate(0 0)" fill="#d8d8d8"/>
    <path id="Path_18100" data-name="Path 18100" d="M142.375,203.438a.98.98,0,0,0,0-1.386,3.591,3.591,0,0,0-5.081,0,.98.98,0,0,0,1.386,1.386,1.632,1.632,0,0,1,2.31,0A.98.98,0,0,0,142.375,203.438Z" transform="translate(-132.811 -194.186)" fill="#d8d8d8"/>
    <path id="Path_18101" data-name="Path 18101" d="M294.376,202.051a3.591,3.591,0,0,0-5.081,0,.98.98,0,0,0,1.386,1.386,1.632,1.632,0,0,1,2.31,0,.98.98,0,0,0,1.386-1.386Z" transform="translate(-280.163 -194.185)" fill="#d8d8d8"/>
    <path id="Path_18102" data-name="Path 18102" d="M206.871,313.3a2.681,2.681,0,0,1-3.788,0,.98.98,0,1,0-1.386,1.386,4.643,4.643,0,0,0,6.559,0,.98.98,0,1,0-1.386-1.386Z" transform="translate(-195.638 -302.498)" fill="#d8d8d8"/>
  </g>
</svg>
