<svg xmlns="http://www.w3.org/2000/svg" width="23.8" height="23.8" viewBox="0 0 23.8 23.8">
  <g id="CALENDER" transform="translate(-1.083 -1.083)">
    <g id="XMLID_416_" transform="translate(1.083 1.083)">
      <path id="XMLID_419_" d="M22.684,16.518V3.277a1.419,1.419,0,0,0-1.418-1.418H17.9V1.395a1.395,1.395,0,1,0-2.789,0v.465H7.577V1.395a1.395,1.395,0,1,0-2.789,0v.465H1.418A1.419,1.419,0,0,0,0,3.277V20.523a1.419,1.419,0,0,0,1.418,1.418H7.754a.465.465,0,0,0,0-.93H1.418a.489.489,0,0,1-.488-.488V3.277a.489.489,0,0,1,.488-.488h3.37v.465a1.395,1.395,0,1,0,2.789,0V2.789h7.53v.465a1.395,1.395,0,1,0,2.789,0V2.789h3.37a.489.489,0,0,1,.488.488v2.3H4.184a.465.465,0,1,0,0,.93H21.755v9.224a4.345,4.345,0,0,0-1.3-.55V8.274a.465.465,0,0,0-.465-.465H2.7a.465.465,0,0,0-.465.465v10.97a.465.465,0,0,0,.465.465H15.07a4.337,4.337,0,0,0,.287,1.3H11.472a.465.465,0,1,0,0,.93h4.384a4.368,4.368,0,1,0,6.828-5.423ZM6.647,3.254a.465.465,0,1,1-.93,0V1.395a.465.465,0,1,1,.93,0Zm10.32,0a.465.465,0,1,1-.93,0V1.395a.465.465,0,1,1,.93,0ZM19.43,15.061a4.388,4.388,0,0,0-.636.046h-1.8v-2.7h2.529v2.651ZM15.109,18.78H13.536V16.037h2.529v.61A4.353,4.353,0,0,0,15.109,18.78ZM3.161,12.411H5.69v2.7H3.161Zm3.458,0H9.148v2.7H6.619Zm6.917,0h2.529v2.7H13.536Zm-.93,2.7H10.078v-2.7h2.529Zm.93-3.626V8.739h2.529v2.743Zm-.93,0H10.078V8.739h2.529Zm-3.458,0H6.619V8.739H9.148Zm0,4.555V18.78H6.619V16.037Zm.93,0h2.529V18.78H10.078Zm9.446-4.555H16.995V8.739h2.529ZM5.69,8.739v2.743H3.161V8.739Zm-2.529,7.3H5.69V18.78H3.161ZM19.43,22.87a3.44,3.44,0,1,1,3.44-3.44A3.444,3.444,0,0,1,19.43,22.87Z" fill="#040404"/>
      <path id="XMLID_1115_" d="M387.671,390.952l-1.254,1.254-.558-.558a.405.405,0,0,0-.573.573l.845.845a.405.405,0,0,0,.573,0l1.541-1.541a.405.405,0,1,0-.573-.573Z" transform="translate(-366.509 -371.946)" fill="#040404"/>
      <path id="XMLID_1116_" d="M197.205,452a.406.406,0,1,0,.287.119A.409.409,0,0,0,197.205,452Z" transform="translate(-187.604 -430.633)" fill="#040404"/>
      <path id="XMLID_1120_" d="M40.692,120.692a.405.405,0,1,0-.287.119A.408.408,0,0,0,40.692,120.692Z" transform="translate(-38.378 -114.393)" fill="#040404"/>
    </g>
  </g>
</svg>
