<svg id="change_password" data-name="change password" xmlns="http://www.w3.org/2000/svg" xmlns:xlink="http://www.w3.org/1999/xlink" width="40" height="40" viewBox="0 0 40 40">
  <defs>
    <linearGradient id="linear-gradient" x1="0.5" x2="0.5" y2="1" gradientUnits="objectBoundingBox">
      <stop offset="0" stop-color="#45be00"/>
      <stop offset="1" stop-color="#2aabe3"/>
    </linearGradient>
  </defs>
  <rect id="bg" width="40" height="40" fill="url(#linear-gradient)"/>
  <g id="Text_icon" data-name="Text/ icon" transform="translate(12 11)">
    <g id="icon">
      <path id="Vector" d="M1.667,0A1.634,1.634,0,0,0,0,1.6V7.2A1.634,1.634,0,0,0,1.667,8.8H13.333A1.634,1.634,0,0,0,15,7.2V1.6A1.634,1.634,0,0,0,13.333,0Z" transform="translate(0 7.2)" fill="none" stroke="#fefefe" stroke-linecap="round" stroke-linejoin="round" stroke-width="1" stroke-dasharray="0 0"/>
      <path id="Vector-2" data-name="Vector" d="M8.333,7.2V4a3.921,3.921,0,0,0-1.22-2.828,4.29,4.29,0,0,0-5.893,0A3.921,3.921,0,0,0,0,4V7.2" transform="translate(3.333)" fill="none" stroke="#fefefe" stroke-linecap="round" stroke-linejoin="round" stroke-width="1" stroke-dasharray="0 0"/>
    </g>
  </g>
  <circle id="Ellipse_2865" data-name="Ellipse 2865" cx="1.5" cy="1.5" r="1.5" transform="translate(18 13)" fill="#ff7a1a"/>
</svg>
