<svg xmlns="http://www.w3.org/2000/svg" xmlns:xlink="http://www.w3.org/1999/xlink" width="96" height="96" viewBox="0 0 96 96">
  <defs>
    <filter id="Ellipse_1" x="0" y="0" width="96" height="96" filterUnits="userSpaceOnUse">
      <feOffset dx="1" dy="3" input="SourceAlpha"/>
      <feGaussianBlur stdDeviation="6.5" result="blur"/>
      <feFlood flood-color="#707070" flood-opacity="0.2"/>
      <feComposite operator="in" in2="blur"/>
      <feComposite in="SourceGraphic"/>
    </filter>
  </defs>
  <g id="G_" data-name="G+" transform="translate(-131.5 -526.5)">
    <g transform="matrix(1, 0, 0, 1, 131.5, 526.5)" filter="url(#Ellipse_1)">
      <circle id="Ellipse_1-2" data-name="Ellipse 1" cx="28.5" cy="28.5" r="28.5" transform="translate(18.5 16.5)" fill="#fff"/>
    </g>
    <path id="google-plus-g" d="M27.988,70.693a6.627,6.627,0,0,1,.128,1.3c0,4.466-2.995,7.631-7.5,7.631a7.812,7.812,0,1,1,0-15.625,7.463,7.463,0,0,1,5.233,2.046l-2.121,2.036a4.387,4.387,0,0,0-3.112-1.2,4.936,4.936,0,0,0,0,9.87,4.231,4.231,0,0,0,4.434-3.368H20.613V70.693h7.376Zm7.544.262V68.688H33.254v2.268H30.986v2.279h2.268V75.5h2.279V73.234H37.8V70.955Z" transform="translate(155.2 500)" fill="#df1919"/>
  </g>
</svg>
