<svg xmlns="http://www.w3.org/2000/svg" xmlns:xlink="http://www.w3.org/1999/xlink" width="39.04" height="39.04" viewBox="0 0 39.04 39.04">
  <defs>
    <linearGradient id="linear-gradient" x1="-0.25" y1="0.5" x2="1.25" y2="0.5" gradientUnits="objectBoundingBox">
      <stop offset="0" stop-color="#ff4f38"/>
      <stop offset="1" stop-color="#ff355d"/>
    </linearGradient>
  </defs>
  <g id="g" transform="translate(-1473.9 -671.98)">
    <circle id="Ellipse_1" data-name="Ellipse 1" cx="19.52" cy="19.52" r="19.52" transform="translate(1473.9 671.98)" fill="url(#linear-gradient)"/>
    <path id="Shape_3" data-name="Shape 3" d="M1502.985,690.134q-4.437,0-8.874,0,0,1.889,0,3.777h5.139a4.557,4.557,0,0,1-1.888,2.989,5.313,5.313,0,0,1-2.076.841,6,6,0,0,1-2.25-.007,5.467,5.467,0,0,1-2.1-.93,6.025,6.025,0,0,1-.791-9.022,5.577,5.577,0,0,1,2.816-1.605,5.447,5.447,0,0,1,2.769.116,5.082,5.082,0,0,1,2.033,1.226c.58-.592,1.156-1.187,1.735-1.779.3-.319.622-.624.917-.952a9.091,9.091,0,0,0-3.035-1.93,9.306,9.306,0,0,0-6.352-.057,9.553,9.553,0,0,0-5.342,4.8,9.8,9.8,0,0,0-.819,2.432,9.916,9.916,0,0,0,.818,6.258,9.7,9.7,0,0,0,2.562,3.232,9.3,9.3,0,0,0,3.427,1.773,9.828,9.828,0,0,0,4.824.053,8.444,8.444,0,0,0,3.861-2.061,8.83,8.83,0,0,0,2.386-4.018A11.659,11.659,0,0,0,1502.985,690.134Z" fill="#fff"/>
  </g>
</svg>
