<svg xmlns="http://www.w3.org/2000/svg" width="189.5" height="219.429" viewBox="0 0 189.5 219.429">
  <g id="Group_69806" data-name="Group 69806" transform="translate(-66.821 -37.89)">
    <path id="Path_75094" data-name="Path 75094" d="M284.607,105.186s1.119-2.478,6.315-5.276,13.828-.16,18.624,6.635a23.913,23.913,0,0,1,1.853,3.084c-5.374,4.824-3.256,12.258-3.256,12.258s5.395-1.239,3.117,2.358-4.356,2.038-4.356,2.038a4.794,4.794,0,0,0,.079,3.158c.513,1.747,1.145,1.82,1.693,2.913a34.188,34.188,0,0,1-8.642,5.843c-6.474,2.877-20.462,4-26.857-6.394S267.821,106.864,284.607,105.186Z" transform="translate(-97.866 -29.408)" fill="#f0ca99" fill-rule="evenodd"/>
    <path id="Path_75095" data-name="Path 75095" d="M236.614,428.506c16.76,0,30.346,3.891,30.346,8.691s-13.586,8.69-30.346,8.69S206.268,442,206.268,437.2s13.587-8.691,30.346-8.691" transform="translate(-67.317 -188.568)" fill="#89adad" fill-rule="evenodd"/>
    <path id="Path_75096" data-name="Path 75096" d="M346.067,119.728a9.072,9.072,0,0,1,2.47,3.775h0s1.444-.271,1.9.415a1.593,1.593,0,0,1,.229,1.335,2.609,2.609,0,0,1,2.287.724,2.5,2.5,0,0,1,.42,2.25,1.817,1.817,0,0,1,1.448,1.3,1.544,1.544,0,0,1-.419,1.677,2.953,2.953,0,0,1,.572,2.516c-.458,1.22-1.945.992-1.945.992a1.942,1.942,0,0,1,0,2.1,2.234,2.234,0,0,1-2.1.724,2.251,2.251,0,0,1,.229,2.02c-.5.877-2.21.8-2.21.8a1.686,1.686,0,0,1-.572,2.059,1.579,1.579,0,0,1-1.906.19s.648,1.22-.992,1.487-2.139-1.631-2.139-1.631c-.548-1.093-1.18-1.166-1.693-2.913a4.794,4.794,0,0,1-.079-3.158s2.078,1.558,4.356-2.038-3.117-2.358-3.117-2.358-2.118-7.434,3.256-12.258" transform="translate(-132.534 -39.507)" fill-rule="evenodd"/>
    <path id="Path_75097" data-name="Path 75097" d="M306.594,103.336s3.2-2.038,5.036-1.878,1.838.879,1.838.879l-.919,1.919a2.882,2.882,0,0,0-2.958-1.079,6.205,6.205,0,0,0-2.958,1.2s-.839-.6-.04-1.039m16.306,2.279a5.337,5.337,0,0,1,2.878,3,5.875,5.875,0,0,1,.2,4h-1.52s-.12-2.877-1.32-4.076a3.427,3.427,0,0,0-2.438-1.12S321.062,104.535,322.9,105.614Z" transform="translate(-115.583 -30.683)" fill-rule="evenodd"/>
    <path id="Path_75098" data-name="Path 75098" d="M317.364,119.488a12.175,12.175,0,0,1-3.237-2,4.69,4.69,0,0,1-1.039-1.918,11.518,11.518,0,0,1,5.356-4c3.558-1.274,2.8,3.556-1.08,7.913m-9.279-7.647a8.789,8.789,0,0,1-2.476-1.185,3.39,3.39,0,0,1-.891-1.3,8.312,8.312,0,0,1,3.535-3.277C310.708,104.9,310.532,108.42,308.085,111.842Z" transform="translate(-114.844 -32.806)" fill="#e69768" fill-rule="evenodd"/>
    <path id="Path_75099" data-name="Path 75099" d="M298.227,123.59a8.385,8.385,0,0,0,4.878,5.754c4.076,1.639,4.667-.789,4.256-1.819a1.414,1.414,0,0,0-1.3-.99s1.837-.75,2.7,1.529-.68,6.494-8.133,3.217a16.077,16.077,0,0,1-9.111-9.752s-6,.519-9.793-3.517-2.2-6.954-.639-7.913a2.069,2.069,0,0,1,2.717.62s-1.638-.559-2.339.6c-.682,1.132.084,3.94,4.215,4.946a4.962,4.962,0,0,0,3,2.129,74.72,74.72,0,0,0,7.953,2.119s-.559,2.717,1.119,3.037a2.361,2.361,0,0,0,.476.04" transform="translate(-102.611 -34.71)" fill-rule="evenodd"/>
    <path id="Path_75100" data-name="Path 75100" d="M290.818,130.834a19.65,19.65,0,0,0,4.741,4.282,28.9,28.9,0,0,0,3.014,1.557,16.57,16.57,0,0,0,2.77,2.55,36.092,36.092,0,0,1-5.025,1.408c-4.277.879-8.472.12-8.552-3.117a28.249,28.249,0,0,1,1.31-7.318,12.662,12.662,0,0,0,1.743.638" transform="translate(-106.659 -44.56)" fill="#8b6639" fill-rule="evenodd"/>
    <path id="Path_75101" data-name="Path 75101" d="M289.311,132.085a30.685,30.685,0,0,0,10.129,7.978c1.046-.287,1.938-.582,2.65-.84a16.57,16.57,0,0,1-2.77-2.55,28.9,28.9,0,0,1-3.014-1.557,19.65,19.65,0,0,1-4.741-4.282,12.662,12.662,0,0,1-1.743-.638c-.151.517-.333,1.168-.512,1.889" transform="translate(-107.406 -44.56)" fill="#fff" fill-rule="evenodd"/>
    <path id="Path_75102" data-name="Path 75102" d="M288.734,165.281a4.085,4.085,0,0,1,.654,2.108c-.12.879-.839,1.4-.04,2.757a7.512,7.512,0,0,1,1.4,4,5.776,5.776,0,0,1-.48,2.8s-6.117-5.036-11.392-6.834a59.335,59.335,0,0,0-10.751-2.438,1.771,1.771,0,0,1-1,1.359,2.829,2.829,0,0,1-2.318-.239s.679,4.676-5.636,7.554-9.193,6.795-9.672,8.233a20.568,20.568,0,0,0-.639,4,20.254,20.254,0,0,1,.08-12.39c2.239-6.474,4-7.833,4-7.833s-1.039-4,3.2-4.236,4.8,1.519,6.154,1.6,1.12.159.879-.96a2.252,2.252,0,0,1,.24-1.759s-2.558-2.238-4.637-3.757a10.392,10.392,0,0,0-5.115-1.6A7.65,7.65,0,0,1,260.6,154.2h0a25.817,25.817,0,0,0,2.135,4.327c6.124,9.952,19.212,9.346,26,6.749Z" transform="translate(-87.427 -56.136)" fill="#da0000" fill-rule="evenodd"/>
    <path id="Path_75103" data-name="Path 75103" d="M210.09,232.268c-.216,3.62-.535,10.3-.312,15.088.319,6.874,1.517,22.14,1.477,23.139s1.078,1.279.718,2.358a2.536,2.536,0,0,0-.079,2.078,3.166,3.166,0,0,1,.121,2.159c-.28.479.159,1.4.159,1.4s-.639.68-3.8,1.039a4.46,4.46,0,0,1-4.436-1.838s.678-.718-.841-3.277-20.317-32.759-24.067-50.03c5.588-.833,14.77-.7,25.607,5.277a54.1,54.1,0,0,0,5.45,2.609m28.346,5.457s-.958,8.112-6.634,20.582-6.155,13.109-5.6,15.067,1.439,3.237.759,3.716-.32,2.158-.32,2.158a8.751,8.751,0,0,1-3.437.479,18.6,18.6,0,0,1-4.156-.559s.758-.36-.161-1.28-1.4-.84-.839-1.679,1.519-.959.6-1.878-4.08-19.3-5.759-27.537c-1.1-5.389-1.889-11.052-2.3-14.321C220.983,236.667,231.8,237.607,238.436,237.725Zm10.63-81.132a190.72,190.72,0,0,1,15.263,20.022c6.714,10.39,10.231,16.145,13.908,20.942a74.548,74.548,0,0,1,5.915,8.953s-2.958,4.557-7.035,5.675a14.781,14.781,0,0,1-6.554.559s-6.316-16.387-11.592-25.818-9.432-12.469-9.432-12.469c-2.911,14.095-4,26.91-.481,47.955a46.736,46.736,0,0,1-25.9-8.153c-13.108-8.792-24.459-13.268-36.449-12.948s-17.9,5.435-17.9,5.435-3.677-13.427,4.8-32.452,20.462-27.178,20.462-27.178-9.271-1.278-12.149-1.438-6.4-10.551-11.51-15.347-7.833-6.234-7.833-6.234,2.638,1.039,5.755-3.2a10.87,10.87,0,0,0,1.758-8.872s5.273,8.872,9.75,16.387S186.712,140,186.712,140s18.313-3.268,25.743-2.714c.339.025.664.057.976.092a9.465,9.465,0,0,1,4.139,1.507c2.078,1.519,4.637,3.757,4.637,3.757a2.252,2.252,0,0,0-.24,1.759c.241,1.119.479,1.039-.879.96s-1.918-1.839-6.154-1.6-3.2,4.236-3.2,4.236-1.758,1.359-4,7.833a20.254,20.254,0,0,0-.08,12.39,20.568,20.568,0,0,1,.639-4c.479-1.438,3.358-5.356,9.672-8.233s5.636-7.554,5.636-7.554a2.829,2.829,0,0,0,2.318.239,1.771,1.771,0,0,0,1-1.359,59.334,59.334,0,0,1,10.751,2.438C242.949,151.556,249.065,156.592,249.065,156.592Z" transform="translate(-46.224 -35.788)" fill="#fff" fill-rule="evenodd"/>
    <path id="Path_75104" data-name="Path 75104" d="M163.442,114.911a5.393,5.393,0,0,0-.8,1.389,13.246,13.246,0,0,0-.436,7.8l.423.093c.865.1,2.959-.066,5.332-3.29l.1-.136c-1.536-1.86-3.374-4.228-4.62-5.851m6.281-2.886a10.748,10.748,0,0,0-1.755.281l1.924,3.916A10.68,10.68,0,0,0,169.722,112.025Z" transform="translate(-45.859 -35.788)" fill="#89898a" fill-rule="evenodd"/>
    <path id="Path_75105" data-name="Path 75105" d="M252.787,305.57h0l-.485,15.315s-22.221,2-40.206-7.915-31.413-3.757-31.413-3.757-3.179-14.84-2.588-20.408c2.587-1.536,7.928-3.968,16.075-4.185,11.99-.32,23.341,4.156,36.449,12.948a48.591,48.591,0,0,0,22.168,8" transform="translate(-53.682 -119.101)" fill="#da0000" fill-rule="evenodd"/>
    <path id="Path_75106" data-name="Path 75106" d="M183.167,330.763a19.847,19.847,0,0,0,8.163,6.342,61.9,61.9,0,0,1-2.357-7.861h0a23.6,23.6,0,0,0-5.807,1.52" transform="translate(-56.165 -140.649)" fill="#a90000" fill-rule="evenodd"/>
    <path id="Path_75107" data-name="Path 75107" d="M244.065,433.926s1.568,3.7.689,4.775-8.752,2.4-13.548,2.518,1.838-3.877,3.6-4.917a4.038,4.038,0,0,0,1.946-2.824,4.64,4.64,0,0,0,3.935,1.228,11.018,11.018,0,0,0,3.381-.782Zm14.362.676s.834.862,1.275,3.819.04,9.313-4.2,4.956-4.3-7.608-3.79-8.939h0a18.977,18.977,0,0,0,3.8.471A10.561,10.561,0,0,0,258.427,434.6Z" transform="translate(-78.53 -190.969)" fill-rule="evenodd"/>
    <path id="Path_75108" data-name="Path 75108" d="M314.615,115.918a6.5,6.5,0,0,1,4.124,3.865,18.365,18.365,0,0,1-1.375,1.742,12.175,12.175,0,0,1-3.237-2,4.69,4.69,0,0,1-1.039-1.918,9.89,9.89,0,0,1,1.527-1.691m-8.931-5.851a4.7,4.7,0,0,1,3.255,2.456,13.509,13.509,0,0,1-.854,1.355,8.789,8.789,0,0,1-2.476-1.185,3.39,3.39,0,0,1-.891-1.3A7.079,7.079,0,0,1,305.684,110.067Z" transform="translate(-114.844 -34.843)" fill="#fff" fill-rule="evenodd"/>
    <path id="Path_75109" data-name="Path 75109" d="M302.161,122.157s-.559,2.717,1.119,3.037a2.13,2.13,0,0,0,2.438-2.879c-.679-1.6-3-2.2-3-2.2s.639-2.279-.68-2.638-3.6-.839-4.636-2.238-3.956-2.916-5.435-1.438-2.2,4.8,2.238,6.234a74.721,74.721,0,0,0,7.953,2.119" transform="translate(-108.14 -36.355)" fill="#df6639" fill-rule="evenodd"/>
    <path id="Path_75110" data-name="Path 75110" d="M308.349,110.935a2.262,2.262,0,0,0-.5,2.715,12.86,12.86,0,0,0,1.628.647,13.509,13.509,0,0,0,.854-1.355,5.11,5.11,0,0,0-1.981-2.007m1.1,1.569c-.185-.112-.471.023-.638.3s-.152.593.033.705.471-.023.638-.3S309.63,112.616,309.444,112.5ZM319,119.648c-.256-.154-.649.032-.88.415s-.21.818.046.971.649-.032.88-.414S319.253,119.8,319,119.648Zm-1.3-2.5a3.137,3.137,0,0,0-1.091,3.669,17.8,17.8,0,0,0,2.15,1.132,18.365,18.365,0,0,0,1.375-1.742A7.083,7.083,0,0,0,317.7,117.143Z" transform="translate(-116.234 -35.262)" fill-rule="evenodd"/>
    <path id="Path_75111" data-name="Path 75111" d="M295.6,142.533c-1.846-3.285-5.448-4.165-7.764-4.377a27.773,27.773,0,0,1,.764-4.308,30.685,30.685,0,0,0,10.129,7.978c-.721.2-1.516.392-2.375.568q-.379.078-.754.139" transform="translate(-106.693 -46.323)" fill="#664723" fill-rule="evenodd"/>
    <g id="Group_69803" data-name="Group 69803" transform="translate(97.217 75.123)">
      <path id="Path_75112" data-name="Path 75112" d="M152.4,115.182l-2.609-5.311c-4.145.2-8.583.3-13.2.3-3.812,0-7.5-.073-11.007-.209a3.329,3.329,0,0,0,1.3.7s-1.478,1.16-.44,2.319,3.318-1.159,7.314-1.08,5.995.721,7.874.68a6.619,6.619,0,0,0,2.877-.6s3.459,4.6,6.056,7.739a10.449,10.449,0,0,0,1.83-4.54" transform="translate(-125.586 -109.871)" fill="#f0ca99" fill-rule="evenodd"/>
      <g id="Group_69802" data-name="Group 69802" transform="translate(129.379 99.088)">
        <path id="Path_75113" data-name="Path 75113" d="M379.136,303.841l1.761,3.071a4.823,4.823,0,0,0-.879,3.917c.44,2.438-1.518,3.877-2.718,3.317s-2.718,1.438-.32,2.517,5.277.8,6.8-1.039,2.557-3.358,4.276-3,2.6,1.04,3.557.56,5.116.4,8.074-.679,2.677-2.319,2.677-2.319,2.478-.559,3-2.158-1.678-2.157-1.678-2.157,1.479-1.16.44-2.319-3.317,1.159-7.314,1.079-5.995-.72-7.874-.679a6.615,6.615,0,0,0-2.877.6s-1.078-1.591-2.15-3.119a10.492,10.492,0,0,1-3.9,2.185C379.709,303.7,379.418,303.776,379.136,303.841Z" transform="translate(-375.711 -301.436)" fill="#f0ca99" fill-rule="evenodd"/>
        <path id="Path_75114" data-name="Path 75114" d="M403.679,309.008s-2.647.55-5.4.909a13.774,13.774,0,0,1-4.475-.04,44.126,44.126,0,0,0,10.638-1.951A2.442,2.442,0,0,1,403.679,309.008Zm.347.116-.341-.115A3.27,3.27,0,0,1,404.026,309.124Zm-1.666,4.2s-3.526-.107-5.765-.266a23.158,23.158,0,0,1-3.4-.441s6.922.484,11.614-.577A5.645,5.645,0,0,1,402.36,313.323Zm-26.643,4.909c.024.011,4.419,2.051,6.372-.26s3.917-5.2,6.474-4.2a28.818,28.818,0,0,0,10.55,2.047c-2.9.794-6.6.05-7.5.5-.96.479-1.837-.2-3.557-.56s-2.757,1.16-4.276,3-4.4,2.118-6.8,1.039C375.989,319.351,375.668,318.746,375.717,318.232Z" transform="translate(-375.712 -304.569)" fill="#e69768" fill-rule="evenodd"/>
      </g>
    </g>
    <path id="Path_75115" data-name="Path 75115" d="M293.834,115.441c-.258-.088-.506-.045-.555.1s.121.328.378.417.506.046.555-.1-.122-.328-.379-.417m1.173-1.215c-.554-.19-1.087-.1-1.191.2s.263.7.818.888,1.087.1,1.19-.2S295.56,114.417,295.006,114.226Z" transform="translate(-109.317 -36.802)" fill="#fff" fill-rule="evenodd"/>
    <g id="Group_69804" data-name="Group 69804" transform="translate(66.821 37.89)">
      <path id="Path_75116" data-name="Path 75116" d="M75.832,92.149c-5.639,1-9.011,2.26-9.011,3.634,0,3.223,18.537,5.836,41.4,5.836s41.4-2.613,41.4-5.836c0-1.374-3.372-2.636-9.011-3.634q.393,1.362.671,2.769a216.212,216.212,0,0,1-66.128,0q.276-1.407.671-2.769" transform="translate(-66.821 -64.083)" fill="#9b831f" fill-rule="evenodd"/>
      <path id="Path_75117" data-name="Path 75117" d="M114.291,45.627A33.554,33.554,0,0,0,82.944,72.46a216.212,216.212,0,0,0,66.128,0,33.554,33.554,0,0,0-31.346-26.833v.79h-3.435Z" transform="translate(-74.604 -41.625)" fill="#f0ca30" fill-rule="evenodd"/>
      <path id="Path_75118" data-name="Path 75118" d="M143.9,37.89c-1.755,0-3.177.7-3.177,1.559,0,.55.582,1.035,1.46,1.312v1.921h3.435V40.761c.877-.277,1.46-.761,1.46-1.312,0-.861-1.422-1.559-3.177-1.559" transform="translate(-102.498 -37.89)" fill-rule="evenodd"/>
      <path id="Path_75119" data-name="Path 75119" d="M81.307,92.423c-1.967.567-3.061,1.193-3.061,1.853,0,2.517,15.892,4.557,35.494,4.557s35.495-2.04,35.495-4.557c0-.661-1.094-1.286-3.06-1.853v0a21.11,21.11,0,0,1,.629,2.047l-.115.014.115.562a216.212,216.212,0,0,1-66.128,0l.115-.562-.115-.013a20.824,20.824,0,0,1,.629-2.047Z" transform="translate(-72.336 -64.216)" fill="#87731b" fill-rule="evenodd"/>
      <path id="Path_75120" data-name="Path 75120" d="M188.818,99.182s-1.838,2.433-15.267,3.876a185.68,185.68,0,0,1-22.941,1.159s23.905-.781,38.208-5.035" transform="translate(-107.27 -67.478)" fill="#f0ca30" fill-rule="evenodd"/>
      <path id="Path_75121" data-name="Path 75121" d="M107.548,47.49A54.048,54.048,0,0,0,92.491,73.367q-1.869-.225-3.745-.479a69.578,69.578,0,0,1,12.452-22.4,33.733,33.733,0,0,1,6.35-3m15.614-1.628A48.06,48.06,0,0,0,110.02,73.844c-.039.323-.081.64-.124.953q-7.753-.337-15.564-1.216a52.318,52.318,0,0,1,16.735-27.112,34.073,34.073,0,0,1,6.024-.842v.79h3.435v-.79C121.415,45.671,122.293,45.751,123.162,45.862Z" transform="translate(-77.405 -41.625)" fill="#d5b42a" fill-rule="evenodd"/>
      <path id="Path_75122" data-name="Path 75122" d="M98.224,77.018a41.827,41.827,0,0,0,13.2,3.685,51.074,51.074,0,0,0-1.4,7.188c-.039.323-.081.64-.124.953q-7.753-.337-15.564-1.216a52.083,52.083,0,0,1,3.891-10.609m-4.059-2.294c.762.5,1.587,1.006,2.485,1.493a51.774,51.774,0,0,0-4.16,11.2q-1.869-.225-3.745-.479A75.148,75.148,0,0,1,94.165,74.724Z" transform="translate(-77.405 -55.671)" fill="#bc9f25" fill-rule="evenodd"/>
      <path id="Path_75123" data-name="Path 75123" d="M171.766,55.921a82.215,82.215,0,0,0-11.35,23.953q4.408-.133,8.794-.452a58.609,58.609,0,0,1,8.266-18.88,33.713,33.713,0,0,0-5.71-4.621" transform="translate(-112.004 -46.594)" fill="#f6e235" fill-rule="evenodd"/>
    </g>
    <path id="Path_75124" data-name="Path 75124" d="M254.5,168.089s-.44-1.958,2.4-2.558,5.515,1.719,4.036,4.8-6.553,3.6-8.073,4.636a9.581,9.581,0,0,0-2.438,2.519s1.519-5.835,3.437-7.434,5.2-1.239,5.2-1.239-2.678-1.519-4.557-.72m9-9.531c6.124,9.952,19.213,9.346,26,6.749a4.085,4.085,0,0,1,.654,2.108c-.069.5-.335.891-.4,1.385-26.677,2.17-28.39-14.57-28.39-14.57A25.866,25.866,0,0,0,263.5,158.558Zm2.07,10.255s.679,4.677-5.636,7.554-9.193,6.795-9.672,8.233a20.568,20.568,0,0,0-.639,4c-1.039-10.227,5.037-11.355,10.632-14.552s3.419-7.155,3.419-7.155a6.816,6.816,0,0,0,3.217,1.459c1.579.1,2-.656,2-.656a1.771,1.771,0,0,1-1,1.359A2.829,2.829,0,0,1,265.572,168.813Z" transform="translate(-88.191 -56.163)" fill="#a90000" fill-rule="evenodd"/>
    <path id="Path_75125" data-name="Path 75125" d="M195.185,153.4s-9.271-1.278-12.149-1.438-6.4-10.551-11.51-15.347a56.794,56.794,0,0,0-6.634-5.479c5.523-.748,7.645-6.1,7.645-6.1a6.694,6.694,0,0,1,.02,1.8,15.24,15.24,0,0,1-.8,3.2,11.654,11.654,0,0,1,2.318,2.8c1.279,2,9.553,16.546,9.553,16.546a21.548,21.548,0,0,0,8.073.879c4.357-.4,10.591-1.2,10.591-1.2Zm55.474,27.341c-2.911,14.095-4,26.91-.481,47.955a44.817,44.817,0,0,1-18.575-4.107c6.823-11.707,8.442-41.833,8.442-41.833a11.5,11.5,0,0,1-1.558-5.356,13.4,13.4,0,0,1,1.04-6.115,13.494,13.494,0,0,0,.919,5.156,7.389,7.389,0,0,0,2.837,3.477,9.747,9.747,0,0,1-2.2-4.157c-.679-2.637.2-7.393.2-7.393a15.528,15.528,0,0,0,2.8,6.794A29.617,29.617,0,0,0,250.659,180.736Zm-27.611-30.257a37.67,37.67,0,0,0-8.919-6.863l.42.044a9.465,9.465,0,0,1,4.139,1.507c2.078,1.519,4.637,3.757,4.637,3.757A2.182,2.182,0,0,0,223.048,150.479Zm-8.664,31.991a2.411,2.411,0,1,0,1.878-4.31,2.407,2.407,0,0,1,.98,1.939l0,.075a.512.512,0,0,1,.142.355.522.522,0,0,1-.318.478,2.414,2.414,0,0,1-2.234,1.5A2.439,2.439,0,0,1,214.383,182.47Zm-.8-2.848a2.391,2.391,0,0,0-.175.831.514.514,0,0,0,.377.164.518.518,0,0,0,0-1.037A.513.513,0,0,0,213.582,179.622ZM212.533,192.7a2.411,2.411,0,1,0,1.878-4.309,2.407,2.407,0,0,1,.979,1.939v.075a.515.515,0,0,1,.142.355.521.521,0,0,1-.318.478,2.414,2.414,0,0,1-2.234,1.5A2.382,2.382,0,0,1,212.533,192.7Zm-.8-2.846a2.428,2.428,0,0,0-.176.831.518.518,0,1,0,.378-.873A.506.506,0,0,0,211.731,189.854Zm-.636,15.955a2.411,2.411,0,1,0,1.878-4.31,2.411,2.411,0,0,1,.979,1.939l0,.076a.515.515,0,0,1,.143.355.521.521,0,0,1-.318.478,2.413,2.413,0,0,1-2.234,1.5A2.384,2.384,0,0,1,211.095,205.81Zm-.8-2.847a2.416,2.416,0,0,0-.176.832.518.518,0,1,0,.176-.832Zm-11.926-35.3a2.385,2.385,0,0,0,1.016.436,2.411,2.411,0,0,0,.864-4.744,2.414,2.414,0,0,1,.964,2.2.517.517,0,0,1-.259.856,2.412,2.412,0,0,1-2.555,1.26Zm-.705-3.054a2.408,2.408,0,0,0-.236.7c-.009.053-.017.1-.022.157a.517.517,0,0,0,.89-.262.516.516,0,0,0-.631-.592Zm-4.794,13.184a2.411,2.411,0,1,0,1.882-4.308,2.411,2.411,0,0,1,.963,2.2.517.517,0,0,1-.26.857A2.412,2.412,0,0,1,192.9,177.8Zm-.7-3.054a2.427,2.427,0,0,0-.236.7c-.009.053-.017.1-.023.157a.518.518,0,1,0,.259-.854Zm-2.89,12.81a2.411,2.411,0,1,0,1.881-4.307,2.408,2.408,0,0,1,.963,2.2.518.518,0,0,1-.259.857,2.411,2.411,0,0,1-2.555,1.259Zm-.705-3.054a2.414,2.414,0,0,0-.236.7c-.009.053-.017.106-.022.158a.518.518,0,0,0,.891-.262.521.521,0,0,0-.421-.6A.516.516,0,0,0,188.568,184.5Zm-2.983,15.716a2.411,2.411,0,1,0,1.881-4.309,2.412,2.412,0,0,1,.964,2.2.517.517,0,0,1-.259.857,2.412,2.412,0,0,1-2.555,1.259Zm-.7-3.054a2.4,2.4,0,0,0-.236.7c-.01.053-.017.106-.023.158a.518.518,0,1,0,.47-.861A.5.5,0,0,0,184.88,197.158Zm34.657-28.507a.518.518,0,1,0,.518.518A.52.52,0,0,0,219.537,168.651Zm-3.659,10.93a.518.518,0,1,0,.518.518A.519.519,0,0,0,215.878,179.581Zm-1.851,10.231a.518.518,0,1,0,.518.518A.519.519,0,0,0,214.027,189.812Zm-1.439,13.109a.518.518,0,1,0,.518.517A.519.519,0,0,0,212.588,202.922Zm-12.654-37.956a.518.518,0,1,0,.421.6A.521.521,0,0,0,199.934,164.966Zm-5.5,10.131a.518.518,0,1,0,.421.6A.519.519,0,0,0,194.437,175.1Zm-3.6,9.756a.518.518,0,1,0,.421.6A.519.519,0,0,0,190.842,184.853Zm-3.687,12.661a.518.518,0,1,0,.421.6A.519.519,0,0,0,187.154,197.514Zm30.889-25.974a2.411,2.411,0,1,0,1.878-4.31,2.406,2.406,0,0,1,.98,1.939l0,.075a.512.512,0,0,1,.142.355.522.522,0,0,1-.318.478,2.414,2.414,0,0,1-2.233,1.5A2.445,2.445,0,0,1,218.043,171.54Zm-.8-2.847a2.38,2.38,0,0,0-.176.831.514.514,0,0,0,.377.164.518.518,0,0,0,0-1.037A.512.512,0,0,0,217.242,168.692Zm-6.034,69.856c-.216,3.62-.535,10.3-.312,15.088.319,6.874,1.517,22.14,1.477,23.139s1.078,1.279.718,2.358a2.536,2.536,0,0,0-.079,2.078,3.166,3.166,0,0,1,.121,2.159c-.28.479.159,1.4.159,1.4s-.639.68-3.8,1.039c1.067-1.707.171-2.608-.308-3.407a4.9,4.9,0,0,1-.879-3.117c-.04-1.838-3.836-7.432-4.914-10.11s-.479-3.117,1.039-.24,3.078,3.077,1.719-4.836-4.716-8.632-4.076-1.758-3.277-3.6-6.714-12.709a107.9,107.9,0,0,1-4.946-18.965,44.567,44.567,0,0,1,15.343,5.275A54.1,54.1,0,0,0,211.208,238.548Zm13.159,3.886c.021.062,1.129,3.3,1.208,13.35.08,10.151-2.637,14.148-.32,10.711s2.478-.2.879,3.436-2.758,4.915-2.359,2.238-.279-2.478-.8.08.359,6.155-.04,7.354-1.2,1.479,0,2.359,2.632,1.915,1,4.035l.394.01a8.751,8.751,0,0,0,3.437-.479s-.359-1.678.32-2.158-.2-1.758-.759-3.716-.08-2.6,5.6-15.067S239.554,244,239.554,244A88.951,88.951,0,0,1,224.367,242.434Zm58.665-26.977S269.245,193.595,263.17,184.8,253.1,168.336,247.1,163.54s-18.3-7.274-18.3-7.274-.325,1.2-2.838,3.846c-1.731,6.791-8.418,34.606-7.862,56.53q-.613-.359-1.222-.706c-.367-20.5,5.348-45.746,7.511-54.51-2.875,1.856-7.162,2.552-9.839,4.67-3.157,2.5-4.5,7.934-4.5,7.934a42.348,42.348,0,0,1-.024-4.7c1.2-1.835,4.049-4.773,9.059-7.055,6.315-2.877,5.636-7.554,5.636-7.554a2.829,2.829,0,0,0,2.318.239,1.771,1.771,0,0,0,1-1.359,59.334,59.334,0,0,1,10.751,2.438c5.275,1.8,11.392,6.834,11.392,6.834a190.719,190.719,0,0,1,15.263,20.022c6.714,10.39,10.231,16.145,13.908,20.942a74.546,74.546,0,0,1,5.915,8.953A17.814,17.814,0,0,1,283.032,215.456Z" transform="translate(-47.343 -42.068)" fill="#ececed" fill-rule="evenodd"/>
    <path id="Path_75126" data-name="Path 75126" d="M234.923,203.975a.518.518,0,1,0,.518.518.52.52,0,0,0-.518-.518m2.094,0a.518.518,0,1,0,.518.518A.52.52,0,0,0,237.017,203.975Zm-5.754,10.93a.518.518,0,1,0,.518.518A.52.52,0,0,0,231.263,214.905Zm2.095,0a.518.518,0,1,0,.518.518A.519.519,0,0,0,233.358,214.905Zm-1.047-1.893a2.411,2.411,0,1,0,2.411,2.411A2.411,2.411,0,0,0,232.311,213.013Zm-2.9,12.124a.518.518,0,1,0,.518.518A.52.52,0,0,0,229.413,225.137Zm2.094,0a.518.518,0,1,0,.518.518A.519.519,0,0,0,231.507,225.137Zm-1.048-1.893a2.411,2.411,0,1,0,2.41,2.411A2.412,2.412,0,0,0,230.459,223.244Zm-2.485,15a.518.518,0,1,0,.518.517A.52.52,0,0,0,227.974,238.246Zm2.094,0a.518.518,0,1,0,.518.517A.519.519,0,0,0,230.068,238.246Zm-1.047-1.893a2.411,2.411,0,1,0,2.411,2.41A2.412,2.412,0,0,0,229.021,236.353Zm-13.668-36.426a.518.518,0,1,0,.42.6A.52.52,0,0,0,215.352,199.927Zm2.062.363a.518.518,0,1,0,.421.6A.521.521,0,0,0,217.415,200.29Zm-.7-2.045a2.411,2.411,0,1,0,1.957,2.792A2.411,2.411,0,0,0,216.711,198.245Zm-6.857,11.814a.518.518,0,1,0,.42.6A.52.52,0,0,0,209.854,210.058Zm2.063.363a.518.518,0,1,0,.421.6A.519.519,0,0,0,211.917,210.421Zm-.7-2.046a2.411,2.411,0,1,0,1.956,2.792A2.411,2.411,0,0,0,211.214,208.376Zm-4.955,11.439a.518.518,0,1,0,.421.6A.52.52,0,0,0,206.259,219.814Zm2.063.363a.518.518,0,1,0,.421.6A.519.519,0,0,0,208.322,220.177Zm-.7-2.045a2.411,2.411,0,1,0,1.956,2.791A2.41,2.41,0,0,0,207.618,218.132Zm-5.047,14.344a.518.518,0,1,0,.42.6A.519.519,0,0,0,202.571,232.476Zm2.063.362a.518.518,0,1,0,.421.6A.519.519,0,0,0,204.634,232.838Zm-.7-2.046a2.411,2.411,0,1,0,1.956,2.793A2.413,2.413,0,0,0,203.93,230.792Zm32.04-28.71a2.411,2.411,0,1,0,2.41,2.411A2.411,2.411,0,0,0,235.971,202.083Z" transform="translate(-64.823 -77.393)" fill-rule="evenodd"/>
    <g id="Group_69805" data-name="Group 69805" transform="translate(191.978 44.554)">
      <path id="Path_75127" data-name="Path 75127" d="M310.073,76.613l3.187-6.734s-3.678-.2-4.358-4.676,1.838-5.914,1.838-5.914.8-6.114,6.434-8.153,11.31,5.236,11.31,5.236,7.514-4.2,16.306,1.477,3.437,15.267,3.437,15.267a11.369,11.369,0,0,1,5.516,11.351c-.8,8.153-10.111,4.315-10.111,4.315a2.57,2.57,0,0,1-2.358,3.2c-3.037.52-6.075-4.6-6.075-4.6l-2.389,2.834h0a9.072,9.072,0,0,0-2.47-3.775,23.91,23.91,0,0,0-1.853-3.084c-4.731-6.7-13.2-9.36-18.413-6.744Z" transform="translate(-308.786 -50.774)" fill="#fff" fill-rule="evenodd"/>
      <path id="Path_75128" data-name="Path 75128" d="M346.536,75.04c-1.185,2.264-4.334,4.076-6.674,4.917a6.359,6.359,0,0,0,4.516,5.275c4.117,1.159,8.193-4.6,2.158-10.192m-2.979-17.928q.632.347,1.275.761c8.792,5.675,3.437,15.267,3.437,15.267a11.369,11.369,0,0,1,5.515,11.351c-.8,8.153-10.111,4.315-10.111,4.315a2.57,2.57,0,0,1-2.358,3.2c-3.037.52-6.075-4.6-6.075-4.6l-2.389,2.834h0a9.072,9.072,0,0,0-2.47-3.775,23.912,23.912,0,0,0-1.853-3.084c4.488-.133,4.944-2.785,4.944-2.785s-5.655-1.259-7.774-3.776a10.738,10.738,0,0,1-2.438-5.016,12.947,12.947,0,0,1-4.177.16,5.576,5.576,0,0,1-3-1.359s2.239.119,4.038.02a17.838,17.838,0,0,0,3.9-.8,13.293,13.293,0,0,0,2.917,5.115c2.2,2.358,7.392,3.078,7.392,3.078C342.615,77.173,351.235,66.224,343.557,57.112Zm-23.689-6.285c4.635.414,8.657,5.569,8.657,5.569-3.126,1.874-5.346,6.2-5.346,6.2a10.7,10.7,0,0,0,1.119-6.954A6.92,6.92,0,0,0,319.868,50.827Zm-9.087,8.487a5.206,5.206,0,0,0,.371,3.284,11.461,11.461,0,0,0,2.278,3.037,5.819,5.819,0,0,1-4.56-2.711A4.667,4.667,0,0,1,310.781,59.314Z" transform="translate(-308.826 -50.8)" fill="#ececed" fill-rule="evenodd"/>
      <path id="Path_75129" data-name="Path 75129" d="M350.1,113.528a4.606,4.606,0,0,0,1.737-.407,12.566,12.566,0,0,0,3.2-2.438s.04,2.159,3.236,3.118,4.636-.36,4.636-.36,9.008,6.152,10.519-5.812a12.874,12.874,0,0,1,.261,4.283c-.8,8.153-10.111,4.315-10.111,4.315a2.57,2.57,0,0,1-2.358,3.2c-3.037.52-6.075-4.6-6.075-4.6l-2.389,2.834h0a9.072,9.072,0,0,0-2.47-3.775Z" transform="translate(-328.73 -78.22)" fill="#dadbdb" fill-rule="evenodd"/>
    </g>
    <path id="Path_75130" data-name="Path 75130" d="M320.858,228a11.791,11.791,0,0,1-3.816-1.463,19.769,19.769,0,0,1-4.076-3.6,20.576,20.576,0,0,0,2.817,4.636,15.068,15.068,0,0,0,2.639,1.978,12.277,12.277,0,0,1-5.056-1.119,8.02,8.02,0,0,1-3.058-2.858,8.254,8.254,0,0,0,1.938,4.2,20.305,20.305,0,0,0,3.937,2.658s-2.421,16.744-2.5,24.338-.2,14.879-3.259,17.99a39.22,39.22,0,0,0,9.953,1.195c-3.523-21.044-2.431-33.86.481-47.955" transform="translate(-117.542 -89.332)" fill="#dadbdb" fill-rule="evenodd"/>
    <path id="Path_75131" data-name="Path 75131" d="M178.052,291.666c3.451-2.214,8.95-4.286,17.176-3.769,16.545,1.039,19.9,8.073,32.053,15.107s15.315,14.667,3.424,16.462a85.719,85.719,0,0,0,21.6,1.421l.485-15.315h0a48.591,48.591,0,0,1-22.168-8c-13.108-8.792-24.459-13.268-36.449-12.948-8.147.217-13.488,2.648-16.075,4.185a19.873,19.873,0,0,0-.043,2.859" transform="translate(-53.682 -119.101)" fill="#a90000" fill-rule="evenodd"/>
    <path id="Path_75132" data-name="Path 75132" d="M247.619,341.146c-.216,3.62-.535,10.3-.312,15.088.319,6.874,1.517,22.14,1.477,23.139s1.078,1.279.718,2.358a2.536,2.536,0,0,0-.079,2.078,3.166,3.166,0,0,1,.121,2.159c-.28.479.159,1.4.159,1.4a3.291,3.291,0,0,1-1.4.607h0a3.391,3.391,0,0,0-.235-3.177c-.72-1.239-.639-1.438-.239-2.838s-.64-3.957-2.718-12.59-4.8-31.788-4.8-31.8q.918.459,1.853.973a54.1,54.1,0,0,0,5.45,2.609m23.914,5.268c.005.018,1.55,4.874-3.8,18.039-5.355,13.188-6.074,14.787-5.355,16.986s1.838,3.517,1.279,4.276a2.969,2.969,0,0,0-.554,2.709,5.373,5.373,0,0,0,1.07-.3s-.359-1.678.32-2.158-.2-1.758-.759-3.716-.08-2.6,5.6-15.067,6.634-20.582,6.634-20.582C274.642,346.578,273.152,346.522,271.532,346.414Z" transform="translate(-83.753 -144.666)" fill="#dadbdb" fill-rule="evenodd"/>
    <path id="Path_75133" data-name="Path 75133" d="M170.824,133.856c-1-.868-1.871-1.573-2.6-2.139,5.809-1.774,7.651-5.354,8.169-8.067L178.381,127a13.027,13.027,0,0,1-7.557,6.856m114.124,75.029c-2.027,3.212-5.756,6.426-12.606,7.07-.315-.786-.7-1.739-1.137-2.811,7.1-.434,10.414-3.927,11.951-6.963C283.84,207.17,284.439,208.085,284.948,208.885Z" transform="translate(-48.949 -41.401)" fill="#da0000"/>
    <path id="Path_75134" data-name="Path 75134" d="M272.431,154.231" transform="translate(-99.257 -56.163)" fill="#e69768" fill-rule="evenodd"/>
    <path id="Path_75135" data-name="Path 75135" d="M290.6,158.224c12.319-1.056,16.517-9.575,16.517-9.575a4.794,4.794,0,0,0,.079,3.158c.513,1.747,1.145,1.82,1.693,2.913a34.189,34.189,0,0,1-8.642,5.843c-.274.122-.561.24-.861.355-6.783,2.6-19.872,3.2-26-6.749a25.865,25.865,0,0,1-2.137-4.327,23.085,23.085,0,0,1-1.259-4.7C272.33,152.594,278.282,159.279,290.6,158.224Z" transform="translate(-98.082 -51.773)" fill="#e69768" fill-rule="evenodd"/>
    <path id="Path_75136" data-name="Path 75136" d="M284.913,140.225a4.722,4.722,0,0,0,.839,5.236c2.279,2.438,6.995,1.559,6.995,1.559a8.828,8.828,0,0,1-6.594.439C282.674,146.22,283.114,141.464,284.913,140.225Z" transform="translate(-104.621 -49.402)" fill="#e69768" fill-rule="evenodd"/>
    <path id="Path_75137" data-name="Path 75137" d="M343.567,146.281s1.339-1.46,2.178-.86-1.08,2.439-2.019,2.3.819-1.018.819-1.018S343.247,146.661,343.567,146.281Z" transform="translate(-133.542 -51.84)" fill="#e69768" fill-rule="evenodd"/>
  </g>
</svg>
