<svg xmlns="http://www.w3.org/2000/svg" width="445.09" height="345.25" viewBox="0 0 445.09 345.25">
  <g id="Group_69699" data-name="Group 69699" transform="translate(0 239.25)">
    <g id="top" transform="translate(0 -118)">
      <path id="Rectangle_842" data-name="Rectangle 842" d="M0,0H375a0,0,0,0,1,0,0V174a50,50,0,0,1-50,50H50A50,50,0,0,1,0,174V0A0,0,0,0,1,0,0Z" fill="#2aabe3"/>
      <g id="Group_1" data-name="Group 1" transform="translate(-2048 -388)">
        <ellipse id="Ellipse_1" data-name="Ellipse 1" cx="154.06" cy="154" rx="154.06" ry="154" transform="translate(2184.97 266.75)" fill="#fff" opacity="0.2"/>
      </g>
    </g>
    <g id="Navigation_Bar" data-name="Navigation Bar" transform="translate(0 44)">
      <g id="Bars_Navigation_Bar___Right_2_Icons" data-name="Bars / Navigation Bar / _ / Right / 2 Icons" transform="translate(295)">
        <rect id="Bars_Navigation_Bar___Right_2_Icons_Background_" data-name="Bars / Navigation Bar / _ / Right / 2 Icons (Background)" width="80" height="44" fill="none"/>
        <rect id="Rectangle" width="80" height="44" fill="none"/>
      </g>
      <rect id="Rectangle-2" data-name="Rectangle" width="160" height="44" transform="translate(108)" fill="none"/>
      <g id="Left">
        <rect id="Rectangle-3" data-name="Rectangle" width="56" height="44" fill="none"/>
        <g id="Arrow" transform="translate(20 10)">
          <path id="Back_Arrow" data-name="Back Arrow" d="M23,9.293a1,1,0,1,1,0,2H3.414L11,18.879a1,1,0,0,1-1.414,1.414L.293,11a1,1,0,0,1,0-1.414L9.586.293A1,1,0,0,1,11,1.707L3.414,9.293Z" transform="translate(0 1.707)" fill="#fff"/>
        </g>
      </g>
      <text id="Title" transform="translate(188.5 29)" fill="#fff" font-size="18" font-family="Tajawal-Regular, Tajawal"><tspan x="-30.798" y="0">الخدمات</tspan></text>
    </g>
    <g id="Bars_Status_Bar_iPhone_Light" data-name="Bars / Status Bar / iPhone / Light" transform="translate(0 5)">
      <g id="Battery" transform="translate(336.333 17.333)">
        <g id="Border" fill="none" stroke="#fff" stroke-width="1" stroke-dasharray="0 0" opacity="0.35">
          <rect width="22" height="11.333" rx="2.667" stroke="none"/>
          <rect x="0.5" y="0.5" width="21" height="10.333" rx="2.167" fill="none"/>
        </g>
        <path id="Cap" d="M0,4A2.17,2.17,0,0,0,1.328,2,2.17,2.17,0,0,0,0,0Z" transform="translate(23 3.667)" fill="#fff" opacity="0.4"/>
        <rect id="Capacity" width="18" height="7.333" rx="1.333" transform="translate(2 2)" fill="#fff"/>
      </g>
      <path id="Wifi" d="M7.667,11a.314.314,0,0,1-.222-.093L5.439,8.885a.31.31,0,0,1-.094-.231.316.316,0,0,1,.1-.227,3.437,3.437,0,0,1,4.437,0,.315.315,0,0,1,.009.458L7.889,10.907A.314.314,0,0,1,7.667,11ZM4.147,7.451a.307.307,0,0,1-.22-.091L2.768,6.189a.322.322,0,0,1,0-.46,7.191,7.191,0,0,1,9.791,0,.323.323,0,0,1,.1.229.319.319,0,0,1-.095.23L11.409,7.36a.311.311,0,0,1-.435.005,4.928,4.928,0,0,0-6.612,0A.311.311,0,0,1,4.147,7.451Zm9.712-2.693a.307.307,0,0,1-.215-.088,8.68,8.68,0,0,0-11.955,0,.308.308,0,0,1-.435,0L.094,3.5a.323.323,0,0,1,0-.457,10.947,10.947,0,0,1,15.141,0,.323.323,0,0,1,0,.457l-1.161,1.17A.307.307,0,0,1,13.859,4.758Z" transform="translate(316 17.331)" fill="#fff"/>
      <path id="Cellular_Connection" data-name="Cellular Connection" d="M16,10.667H15a1,1,0,0,1-1-1V1a1,1,0,0,1,1-1h1a1,1,0,0,1,1,1V9.667A1,1,0,0,1,16,10.667Zm-4.667,0h-1a1,1,0,0,1-1-1V3.334a1,1,0,0,1,1-1h1a1,1,0,0,1,1,1V9.667A1,1,0,0,1,11.334,10.667Zm-4.667,0h-1a1,1,0,0,1-1-1v-4a1,1,0,0,1,1-1h1a1,1,0,0,1,1,1v4A1,1,0,0,1,6.666,10.667ZM2,10.667H1a1,1,0,0,1-1-1v-2a1,1,0,0,1,1-1H2a1,1,0,0,1,1,1v2A1,1,0,0,1,2,10.667Z" transform="translate(294 17.667)" fill="#fff"/>
      <g id="Time_Style" data-name="Time Style" transform="translate(21 7)">
        <text id="Time" transform="translate(0 7)" fill="#fff" font-size="15" font-family="SegoeUI, Segoe UI" letter-spacing="-0.02em"><tspan x="-13.305" y="16">9:41</tspan></text>
      </g>
    </g>
  </g>
</svg>
