<svg xmlns="http://www.w3.org/2000/svg" xmlns:xlink="http://www.w3.org/1999/xlink" width="41" height="41" viewBox="0 0 41 41">
  <defs>
    <filter id="Ellipse_15" x="0" y="0" width="41" height="41" filterUnits="userSpaceOnUse">
      <feOffset dy="3" input="SourceAlpha"/>
      <feGaussianBlur stdDeviation="3" result="blur"/>
      <feFlood flood-color="#929292" flood-opacity="0.161"/>
      <feComposite operator="in" in2="blur"/>
      <feComposite in="SourceGraphic"/>
    </filter>
  </defs>
  <g id="heart" transform="translate(-306 -351)">
    <g transform="matrix(1, 0, 0, 1, 306, 351)" filter="url(#Ellipse_15)">
      <circle id="Ellipse_15-2" data-name="Ellipse 15" cx="11.5" cy="11.5" r="11.5" transform="translate(9 6)" fill="#fff"/>
    </g>
    <path id="Icon_ionic-md-heart-empty" data-name="Icon ionic-md-heart-empty" d="M12.99,4.5a3.923,3.923,0,0,0-2.984,1.4A3.923,3.923,0,0,0,7.022,4.5,3.606,3.606,0,0,0,3.375,8.169c0,2.535,2.254,4.569,5.668,7.706l.963.867.963-.867c3.414-3.137,5.668-5.171,5.668-7.706A3.606,3.606,0,0,0,12.99,4.5ZM10.414,15l-.134.124-.274.249-.274-.249L9.6,15a40.523,40.523,0,0,1-3.912-3.889A4.678,4.678,0,0,1,4.4,8.169a2.652,2.652,0,0,1,.756-1.891A2.6,2.6,0,0,1,7.022,5.52a2.924,2.924,0,0,1,2.2,1.036l.781.928.781-.928a2.913,2.913,0,0,1,2.2-1.036,2.607,2.607,0,0,1,1.871.759,2.657,2.657,0,0,1,.756,1.891,4.7,4.7,0,0,1-1.288,2.939A40.6,40.6,0,0,1,10.414,15Z" transform="translate(316.792 358.667)" fill="#c1c1c1"/>
  </g>
</svg>
