<svg xmlns="http://www.w3.org/2000/svg" width="10.5" height="10.5" viewBox="0 0 10.5 10.5">
  <path id="Icon_awesome-thumbs-up" data-name="Icon awesome-thumbs-up" d="M2.133,4.594H.492A.492.492,0,0,0,0,5.086v4.922a.492.492,0,0,0,.492.492H2.133a.492.492,0,0,0,.492-.492V5.086A.492.492,0,0,0,2.133,4.594ZM1.313,9.68A.492.492,0,1,1,1.8,9.188.492.492,0,0,1,1.313,9.68ZM7.875,1.67c0,.87-.533,1.358-.682,1.939H9.279A1.225,1.225,0,0,1,10.5,4.8a1.485,1.485,0,0,1-.4,1.009l0,0a1.713,1.713,0,0,1-.191,1.63,1.622,1.622,0,0,1-.336,1.533,1.089,1.089,0,0,1-.126.915c-.419.6-1.456.61-2.333.61H7.055A5.887,5.887,0,0,1,4.6,9.849a3.227,3.227,0,0,0-1.08-.332.246.246,0,0,1-.242-.246V4.888a.246.246,0,0,1,.073-.175c.812-.8,1.162-1.653,1.828-2.32A2.484,2.484,0,0,0,5.7,1.185C5.794.806,5.985,0,6.4,0,6.891,0,7.875.164,7.875,1.67Z" fill="#08438f"/>
</svg>
