<svg xmlns="http://www.w3.org/2000/svg" width="27.405" height="26.25" viewBox="0 0 27.405 26.25">
  <g id="Icon_feather-shopping-cart" data-name="Icon feather-shopping-cart" transform="translate(-0.5 -0.5)">
    <path id="Path_1121" data-name="Path 1121" d="M14.31,31.155A1.155,1.155,0,1,1,13.155,30,1.155,1.155,0,0,1,14.31,31.155Z" transform="translate(-2.417 -6.56)" fill="none" stroke="#fff" stroke-linecap="round" stroke-linejoin="round" stroke-width="2"/>
    <path id="Path_1122" data-name="Path 1122" d="M30.81,31.155A1.155,1.155,0,1,1,29.655,30,1.155,1.155,0,0,1,30.81,31.155Z" transform="translate(-6.214 -6.56)" fill="none" stroke="#fff" stroke-linecap="round" stroke-linejoin="round" stroke-width="2"/>
    <path id="Path_1123" data-name="Path 1123" d="M1.5,1.5H6.119L9.214,16.962a2.31,2.31,0,0,0,2.31,1.859H22.748a2.31,2.31,0,0,0,2.31-1.859L26.9,7.274H7.274" fill="none" stroke="#fff" stroke-linecap="round" stroke-linejoin="round" stroke-width="2"/>
  </g>
</svg>
