<svg xmlns="http://www.w3.org/2000/svg" width="17.2" height="19" viewBox="0 0 17.2 19">
  <g id="Icon_feather-share-2" data-name="Icon feather-share-2" transform="translate(-4 -2.5)">
    <path id="Path_74914" data-name="Path 74914" d="M27.9,5.7A2.7,2.7,0,1,1,25.2,3,2.7,2.7,0,0,1,27.9,5.7Z" transform="translate(-7.2)" fill="none" stroke="#000" stroke-linecap="round" stroke-linejoin="round" stroke-width="1"/>
    <path id="Path_74915" data-name="Path 74915" d="M9.9,16.2a2.7,2.7,0,1,1-2.7-2.7A2.7,2.7,0,0,1,9.9,16.2Z" transform="translate(0 -4.2)" fill="none" stroke="#000" stroke-linecap="round" stroke-linejoin="round" stroke-width="1"/>
    <path id="Path_74916" data-name="Path 74916" d="M27.9,26.7A2.7,2.7,0,1,1,25.2,24,2.7,2.7,0,0,1,27.9,26.7Z" transform="translate(-7.2 -8.4)" fill="none" stroke="#000" stroke-linecap="round" stroke-linejoin="round" stroke-width="1"/>
    <path id="Path_74917" data-name="Path 74917" d="M12.885,20.265l6.147,3.582" transform="translate(-3.354 -6.906)" fill="none" stroke="#000" stroke-linecap="round" stroke-linejoin="round" stroke-width="1"/>
    <path id="Path_74918" data-name="Path 74918" d="M19.023,9.765l-6.138,3.582" transform="translate(-3.354 -2.706)" fill="none" stroke="#000" stroke-linecap="round" stroke-linejoin="round" stroke-width="1"/>
  </g>
</svg>
