<svg xmlns="http://www.w3.org/2000/svg" width="14.473" height="20.5" viewBox="0 0 14.473 20.5">
  <path id="Icon_awesome-question" data-name="Icon awesome-question" d="M8.519,0A7.379,7.379,0,0,0,1.964,3.467a.915.915,0,0,0,.2,1.252L3.8,5.965a.914.914,0,0,0,1.266-.158c.954-1.2,1.662-1.883,3.152-1.883,1.172,0,2.621.754,2.621,1.89,0,.859-.709,1.3-1.866,1.949-1.349.756-3.134,1.7-3.134,4.053v.373a.914.914,0,0,0,.914.914h2.76a.914.914,0,0,0,.914-.914v-.22c0-1.632,4.771-1.7,4.771-6.118C15.2,2.523,11.752,0,8.519,0ZM8.137,14.224a2.638,2.638,0,1,0,2.638,2.638A2.641,2.641,0,0,0,8.137,14.224Z" transform="translate(-1.229 0.5)" fill="none" stroke="#fefefe" stroke-width="1"/>
</svg>
