<svg xmlns="http://www.w3.org/2000/svg" width="154.951" height="167.646" viewBox="0 0 154.951 167.646">
  <g id="logo" transform="translate(265.669 84.257)">
    <path id="Path_1" data-name="Path 1" d="M545.429,116.646c-3.25-.948-6.479-2.615-9.755-2.713-11.227-.338-22.472-.024-33.707-.192-3.1-.047-5.008.6-6.093,3.8-2.044,6.028-4.711,11.848-6.692,17.894-2.588,7.9-.92,10.408,7.188,12.11a4.542,4.542,0,0,1,3.175,2.55H466.372c0-.748-.1-1.419.014-1.458,9.623-3.247,13.5-11.355,17.1-19.837,12.457-29.347,39.851-90.7,41.007-92.059,1.165,1.353,23.348,49.7,32.439,70.816.034.675-7.97,7.809-10.632,11.334Zm-5.375-9.342L519.988,60.183,500.178,107.3Z" transform="translate(-732 -121)" fill="#03c950"/>
    <path id="Path_2" data-name="Path 2" d="M673.094,275.737A1144.624,1144.624,0,0,1,787.178,162.188C782.345,173.084,693.217,262.082,673.094,275.737Z" transform="translate(-903.47 -225.033)" fill="#2aabe3"/>
    <path id="Path_3" data-name="Path 3" d="M881.466,447.487l-3.634,28.654H780.067l76.142-105.3-9.918-.615c1.009-2.077,3.673-5.8,5.192-5.8,8.461.015,19.985.022,28.447.05L804.256,470.416h12.617q16.571,0,33.143-.01c14.779-.021,19.88-3.494,25.585-17.158.42-.942,2.348-4.427,3.538-6.634Z" transform="translate(-992.184 -392.752)" fill="#03c950"/>
  </g>
</svg>
