<svg xmlns="http://www.w3.org/2000/svg" width="90.975" height="98.429" viewBox="0 0 90.975 98.429">
  <g id="logo-small" transform="translate(265.669 84.257)">
    <path id="Path_1" data-name="Path 1" d="M512.771,83.656c-1.908-.557-3.8-1.535-5.727-1.593-6.592-.2-13.194-.014-19.79-.113-1.821-.027-2.94.353-3.578,2.233-1.2,3.539-2.766,6.956-3.929,10.506-1.52,4.637-.54,6.111,4.22,7.11a2.667,2.667,0,0,1,1.864,1.5H466.355c0-.439-.059-.833.008-.856,5.65-1.906,7.926-6.667,10.04-11.647,7.314-17.231,23.4-53.25,24.076-54.05.684.794,13.708,29.18,19.046,41.578.02.4-4.679,4.585-6.242,6.655Zm-3.156-5.485L497.835,50.505,486.2,78.171Z" transform="translate(-732 -121)" fill="#03c950"/>
    <path id="Path_2" data-name="Path 2" d="M673.094,228.855a672.038,672.038,0,0,1,66.981-66.667C737.238,168.585,684.909,220.838,673.094,228.855Z" transform="translate(-918.041 -233.873)" fill="#2aabe3"/>
    <path id="Path_3" data-name="Path 3" d="M839.6,413.194l-2.133,16.824h-57.4l44.7-61.825-5.823-.361c.592-1.22,2.156-3.4,3.049-3.4,4.968.009,11.734.013,16.7.029l-44.43,62.2h7.408q9.729,0,19.459-.006c8.677-.012,11.672-2.051,15.022-10.074.247-.553,1.378-2.6,2.077-3.895Z" transform="translate(-1014.294 -415.845)" fill="#03c950"/>
  </g>
</svg>
