<svg xmlns="http://www.w3.org/2000/svg" width="21.214" height="27.406" viewBox="0 0 21.214 27.406">
  <path id="notifications" d="M19.131,19.781V11.518a8.539,8.539,0,0,0-6.048-8.157c0-.015,0-.031,0-.046V2.622A2.556,2.556,0,0,0,10.607,0,2.556,2.556,0,0,0,8.129,2.622v.693c0,.016,0,.031,0,.046a8.539,8.539,0,0,0-6.048,8.157v8.264A2.453,2.453,0,0,0,0,22.2v1.28a1,1,0,0,0,1,1H6.965a3.729,3.729,0,0,0,7.284,0h5.969a1,1,0,0,0,1-1V22.2a2.453,2.453,0,0,0-2.083-2.422ZM9.735,2.622a.954.954,0,0,1,.872-1.016.954.954,0,0,1,.872,1.016v.416a8.606,8.606,0,0,0-1.745,0Zm-6.046,8.9a6.918,6.918,0,1,1,13.836,0v8.236H3.689ZM10.607,25.8A2.128,2.128,0,0,1,8.64,24.479h3.933A2.128,2.128,0,0,1,10.607,25.8Zm9-2.927h-18V22.2a.844.844,0,0,1,.843-.843H18.765a.844.844,0,0,1,.843.843Zm0,0" transform="translate(0 0)" fill="#1e160e"/>
</svg>
