<svg id="order_icon" data-name="ordericon" xmlns="http://www.w3.org/2000/svg" xmlns:xlink="http://www.w3.org/1999/xlink" width="40" height="40" viewBox="0 0 40 40">
  <defs>
    <linearGradient id="linear-gradient" x1="0.5" x2="0.5" y2="1" gradientUnits="objectBoundingBox">
      <stop offset="0" stop-color="#45be00"/>
      <stop offset="1" stop-color="#2aabe3"/>
    </linearGradient>
  </defs>
  <rect id="bg" width="40" height="40" fill="url(#linear-gradient)"/>
  <g id="order_icon-2" data-name="ordericon" transform="translate(13 12)">
    <path id="Vector" d="M14,3.2V14.4a1.623,1.623,0,0,1-.456,1.131,1.534,1.534,0,0,1-1.1.469H1.556a1.534,1.534,0,0,1-1.1-.469A1.623,1.623,0,0,1,0,14.4V3.2L2.333,0h9.333Z" fill="none" stroke="#fefefe" stroke-linecap="round" stroke-linejoin="round" stroke-width="1.5" stroke-dasharray="0 0"/>
    <path id="Vector-2" data-name="Vector" d="M14,0H0" transform="translate(0 3.2)" fill="none" stroke="#fefefe" stroke-linecap="round" stroke-linejoin="round" stroke-width="1.5" stroke-dasharray="0 0"/>
    <path id="Vector-3" data-name="Vector" d="M0,0A3.247,3.247,0,0,0,.911,2.263a3.05,3.05,0,0,0,4.4,0A3.247,3.247,0,0,0,6.222,0" transform="translate(3.889 6.4)" fill="none" stroke="#fefefe" stroke-linecap="round" stroke-linejoin="round" stroke-width="1.5" stroke-dasharray="0 0"/>
  </g>
</svg>
