<svg xmlns="http://www.w3.org/2000/svg" width="26.577" height="17.465" viewBox="0 0 26.577 17.465">
  <g id="people" transform="translate(0 -87.646)">
    <path id="Path_18103" data-name="Path 18103" d="M176.726,96.306a4.33,4.33,0,1,0-4.33-4.33A4.335,4.335,0,0,0,176.726,96.306Zm0-7.1a2.771,2.771,0,1,1-2.771,2.771A2.774,2.774,0,0,1,176.726,89.205Z" transform="translate(-163.434 0)" fill="#d8d8d8"/>
    <path id="Path_18104" data-name="Path 18104" d="M356.034,131.145a3.292,3.292,0,1,0-3.292-3.292A3.3,3.3,0,0,0,356.034,131.145Zm0-5.026a1.733,1.733,0,1,1-1.733,1.733A1.735,1.735,0,0,1,356.034,126.119Z" transform="translate(-334.405 -34.995)" fill="#d8d8d8"/>
    <path id="Path_18105" data-name="Path 18105" d="M23.26,268.566H20a3.365,3.365,0,0,0-2.478,1.128,4.7,4.7,0,0,0-2.284-.59H11.347a4.7,4.7,0,0,0-2.3.6,3.3,3.3,0,0,0-2.468-1.1H3.317A3.321,3.321,0,0,0,0,271.921v1.234a.78.78,0,0,0,.78.78H6.623v1.912a.78.78,0,0,0,.78.78H19.181a.78.78,0,0,0,.78-.78V273.9H25.8a.78.78,0,0,0,.78-.78v-1.234A3.32,3.32,0,0,0,23.26,268.566Zm-21.7,3.355a1.759,1.759,0,0,1,1.757-1.757H6.579a1.75,1.75,0,0,1,1.247.519,4.725,4.725,0,0,0-.974,1.692H1.559ZM18.4,275.066H8.182v-1.238a3.169,3.169,0,0,1,3.165-3.165h3.889a3.169,3.169,0,0,1,3.165,3.165v1.238Zm6.616-2.729h-5.3a4.727,4.727,0,0,0-.974-1.668A1.8,1.8,0,0,1,20,270.125H23.26a1.759,1.759,0,0,1,1.757,1.757Z" transform="translate(0 -171.515)" fill="#d8d8d8"/>
    <path id="Path_18106" data-name="Path 18106" d="M34.76,131.145a3.292,3.292,0,1,0-3.293-3.292A3.3,3.3,0,0,0,34.76,131.145Zm0-5.026a1.733,1.733,0,1,1-1.733,1.733A1.735,1.735,0,0,1,34.76,126.119Z" transform="translate(-29.831 -34.995)" fill="#d8d8d8"/>
  </g>
</svg>
