<svg xmlns="http://www.w3.org/2000/svg" width="270" height="164.591" viewBox="0 0 270 164.591">
  <g id="reservation_-complete" data-name="reservation -complete" transform="translate(0 0)">
    <path id="Path_18107" data-name="Path 18107" d="M167.41,532.255l-.463-.1a105.465,105.465,0,0,1,205.671-.28l-.463.105a104.381,104.381,0,0,0-102.34-81.554C221.14,450.421,178.073,484.837,167.41,532.255Z" transform="translate(-134.783 -367.664)" fill="#3f3d56"/>
    <circle id="Ellipse_45" data-name="Ellipse 45" cx="12.898" cy="12.898" r="12.898" transform="translate(86.157 3.583)" fill="#ff6584"/>
    <path id="Path_18108" data-name="Path 18108" d="M214.241,774.658a4.78,4.78,0,0,0,1.78,2.408,4.115,4.115,0,0,0-1.457-5.385A4.779,4.779,0,0,0,214.241,774.658Z" transform="translate(-170.753 -612.997)" fill="#3f3d56"/>
    <path id="Path_18109" data-name="Path 18109" d="M208.262,779.13a4.78,4.78,0,0,1,1.239,2.726,4.115,4.115,0,0,1-4-3.891A4.78,4.78,0,0,1,208.262,779.13Z" transform="translate(-164.183 -617.789)" fill="#04a097"/>
    <path id="Path_18110" data-name="Path 18110" d="M343.241,774.658a4.78,4.78,0,0,0,1.78,2.408,4.115,4.115,0,0,0-1.457-5.385A4.779,4.779,0,0,0,343.241,774.658Z" transform="translate(-269.12 -612.997)" fill="#3f3d56"/>
    <path id="Path_18111" data-name="Path 18111" d="M337.262,779.13a4.78,4.78,0,0,1,1.239,2.726,4.115,4.115,0,0,1-4-3.891A4.78,4.78,0,0,1,337.262,779.13Z" transform="translate(-262.55 -617.789)" fill="#04a097"/>
    <path id="Path_18112" data-name="Path 18112" d="M322.136,91.659l-4.85-3.88,27.16-24.25h68.87v21.34l-44.62,30.07Z" transform="translate(-241.941 -48.443)" fill="#3f3d56"/>
    <path id="Path_18113" data-name="Path 18113" d="M591.1,77.132V64.013h-9.144v3.213l-3.413-3.7-22.31,24.25L547.5,93.6l-13.536,98.9,20.414,20.414H601.82V88.749Z" transform="translate(-407.165 -48.443)" fill="#ccc"/>
    <rect id="Rectangle_1046" data-name="Rectangle 1046" width="73.72" height="125.13" transform="translate(75.345 39.336)" fill="#f2f2f2"/>
    <rect id="Rectangle_1047" data-name="Rectangle 1047" width="13.58" height="30.555" transform="translate(103.96 133.911)" fill="#ccc"/>
    <path id="Path_18114" data-name="Path 18114" d="M357.827,585.1v-4.85h-5.82v4.85h5.82Z" transform="translate(-268.417 -442.462)" fill="#3f3d56"/>
    <path id="Path_18115" data-name="Path 18115" d="M357.342,617.016h-5.335v4.85h5.82v-4.85Z" transform="translate(-268.417 -470.495)" fill="#3f3d56"/>
    <rect id="Rectangle_1048" data-name="Rectangle 1048" width="5.82" height="4.85" transform="translate(93.29 137.791)" fill="#3f3d56"/>
    <rect id="Rectangle_1049" data-name="Rectangle 1049" width="5.82" height="4.85" transform="translate(93.29 146.521)" fill="#3f3d56"/>
    <path id="Path_18116" data-name="Path 18116" d="M525.3,585.1v-4.85h-5.82v4.85h5.82Z" transform="translate(-396.123 -442.462)" fill="#3f3d56"/>
    <path id="Path_18117" data-name="Path 18117" d="M524.818,617.016h-5.335v4.85h5.82v-4.85Z" transform="translate(-396.123 -470.495)" fill="#3f3d56"/>
    <rect id="Rectangle_1050" data-name="Rectangle 1050" width="5.82" height="4.85" transform="translate(133.06 137.791)" fill="#3f3d56"/>
    <rect id="Rectangle_1051" data-name="Rectangle 1051" width="5.82" height="4.85" transform="translate(133.06 146.521)" fill="#3f3d56"/>
    <path id="Path_18118" data-name="Path 18118" d="M696.863,176.626v-4.85h-5.82v4.85h5.82Z" transform="translate(-526.943 -130.985)" fill="#3f3d56"/>
    <path id="Path_18119" data-name="Path 18119" d="M696.378,208.539h-5.335v4.85h5.82v-4.85Z" transform="translate(-526.943 -159.018)" fill="#3f3d56"/>
    <rect id="Rectangle_1052" data-name="Rectangle 1052" width="5.82" height="4.85" transform="translate(173.8 40.791)" fill="#3f3d56"/>
    <rect id="Rectangle_1053" data-name="Rectangle 1053" width="5.82" height="4.85" transform="translate(173.8 49.521)" fill="#3f3d56"/>
    <path id="Path_18120" data-name="Path 18120" d="M696.863,291v-4.85h-5.82V291h5.82Z" transform="translate(-526.943 -218.198)" fill="#3f3d56"/>
    <path id="Path_18121" data-name="Path 18121" d="M696.378,322.912h-5.335v4.85h5.82v-4.85Z" transform="translate(-526.943 -246.231)" fill="#3f3d56"/>
    <rect id="Rectangle_1054" data-name="Rectangle 1054" width="5.82" height="4.85" transform="translate(173.8 67.951)" fill="#3f3d56"/>
    <rect id="Rectangle_1055" data-name="Rectangle 1055" width="5.82" height="4.85" transform="translate(173.8 76.681)" fill="#3f3d56"/>
    <path id="Path_18122" data-name="Path 18122" d="M696.863,405.373v-4.85h-5.82v4.85h5.82Z" transform="translate(-526.943 -305.412)" fill="#3f3d56"/>
    <path id="Path_18123" data-name="Path 18123" d="M696.378,437.286h-5.335v4.85h5.82v-4.85Z" transform="translate(-526.943 -333.445)" fill="#3f3d56"/>
    <rect id="Rectangle_1056" data-name="Rectangle 1056" width="5.82" height="4.85" transform="translate(173.8 95.111)" fill="#3f3d56"/>
    <rect id="Rectangle_1057" data-name="Rectangle 1057" width="5.82" height="4.85" transform="translate(173.8 103.841)" fill="#3f3d56"/>
    <path id="Path_18124" data-name="Path 18124" d="M696.863,519.747V514.9h-5.82v4.85h5.82Z" transform="translate(-526.943 -392.626)" fill="#3f3d56"/>
    <path id="Path_18125" data-name="Path 18125" d="M696.378,551.66h-5.335v4.85h5.82v-4.85Z" transform="translate(-526.943 -420.659)" fill="#3f3d56"/>
    <rect id="Rectangle_1058" data-name="Rectangle 1058" width="5.82" height="4.85" transform="translate(173.8 122.271)" fill="#3f3d56"/>
    <rect id="Rectangle_1059" data-name="Rectangle 1059" width="5.82" height="4.85" transform="translate(173.8 131.001)" fill="#3f3d56"/>
    <rect id="Rectangle_1060" data-name="Rectangle 1060" width="56.26" height="11.64" transform="translate(83.59 45.641)" fill="#3f3d56"/>
    <rect id="Rectangle_1061" data-name="Rectangle 1061" width="56.26" height="11.64" transform="translate(83.59 68.921)" fill="#3f3d56"/>
    <rect id="Rectangle_1062" data-name="Rectangle 1062" width="56.26" height="11.64" transform="translate(83.59 92.201)" fill="#3f3d56"/>
    <rect id="Rectangle_1063" data-name="Rectangle 1063" width="56.26" height="11.64" transform="translate(83.59 115.481)" fill="#3f3d56"/>
    <rect id="Rectangle_1064" data-name="Rectangle 1064" width="270" height="0.475" transform="translate(0 163.978)" fill="#3f3d56"/>
    <rect id="Rectangle_1065" data-name="Rectangle 1065" width="1.395" height="55.105" transform="translate(45.215 109.143)" fill="#3f3d56"/>
    <path id="Path_18126" data-name="Path 18126" d="M194.469,480.8C194.558,500.068,181,515.751,181,515.751s-13.7-15.558-13.789-34.826,13.468-34.952,13.468-34.952S194.381,461.531,194.469,480.8Z" transform="translate(-134.985 -364.634)" fill="#04a097"/>
    <path id="Path_18127" data-name="Path 18127" d="M194.469,480.8C194.558,500.068,181,515.751,181,515.751s-13.7-15.558-13.789-34.826,13.468-34.952,13.468-34.952S194.381,461.531,194.469,480.8Z" transform="translate(-134.985 -364.634)" fill="#45be00" opacity="0.1"/>
    <rect id="Rectangle_1066" data-name="Rectangle 1066" width="1.395" height="55.105" transform="translate(27.079 109.143)" fill="#3f3d56"/>
    <path id="Path_18128" data-name="Path 18128" d="M118.1,480.8c.089,19.269-13.468,34.952-13.468,34.952s-13.7-15.558-13.789-34.826,13.468-34.952,13.468-34.952S118.009,461.531,118.1,480.8Z" transform="translate(-76.748 -364.634)" fill="#f4c21b"/>
    <path id="Path_18129" data-name="Path 18129" d="M913.045,237.256c-10.989.051-19.934.213-19.934.213S903.743,223.385,913,228.6a126.469,126.469,0,0,0,19.9,8.682S924.034,237.205,913.045,237.256Z" transform="translate(-688.507 -197.998)" fill="#f2f2f2"/>
    <path id="Path_18130" data-name="Path 18130" d="M142.045,351.256c-10.989.051-19.934.213-19.934.213S132.743,337.385,142,342.6a126.472,126.472,0,0,0,19.9,8.682S153.034,351.205,142.045,351.256Z" transform="translate(-100.594 -284.927)" fill="#f2f2f2"/>
    <path id="Path_18131" data-name="Path 18131" d="M310.045,113.256c-10.989.051-19.934.213-19.934.213S300.743,99.385,310,104.6a126.47,126.47,0,0,0,19.9,8.682S321.034,113.205,310.045,113.256Z" transform="translate(-228.699 -103.444)" fill="#f2f2f2"/>
    <rect id="Rectangle_1067" data-name="Rectangle 1067" width="1.395" height="55.105" transform="translate(245.785 109.143)" fill="#3f3d56"/>
    <path id="Path_18132" data-name="Path 18132" d="M1039.1,480.8c.089,19.269-13.468,34.952-13.468,34.952s-13.7-15.558-13.789-34.826,13.468-34.952,13.468-34.952S1039.012,461.531,1039.1,480.8Z" transform="translate(-779.045 -364.634)" fill="#f60707"/>
    <path id="Path_18133" data-name="Path 18133" d="M801.282,536.716h14.079v-3.4h7.768v3.4h14.565v15.05H823.129V570.7h-7.768V551.767H801.282L794,543.513Z" transform="translate(-605.451 -406.673)" fill="#3f3d56"/>
  </g>
</svg>
