<svg xmlns="http://www.w3.org/2000/svg" width="34.687" height="34.762" viewBox="0 0 34.687 34.762">
  <g id="svgexport-6_1_" data-name="svgexport-6 (1)" transform="translate(-0.549)">
    <g id="Group_69985" data-name="Group 69985" transform="translate(0.549)">
      <g id="Group_69984" data-name="Group 69984" transform="translate(0)">
        <path id="Path_75159" data-name="Path 75159" d="M30.982,11.362H28.476V6.431a3.2,3.2,0,0,0-.885-2.207L25.971,2.53C24.6,1.115,24.424.715,23.605.317A3.2,3.2,0,0,0,22.219,0H10.393A3.2,3.2,0,0,0,7.2,3.195V20.422H6.524a1.842,1.842,0,0,0-1.308,3.14,1.836,1.836,0,0,0-.535,1.3,1.891,1.891,0,0,0,.036.365,4.646,4.646,0,0,0,.664,9.263l9.088,0a1.842,1.842,0,0,0,1.308-3.14,1.833,1.833,0,0,0,.532-1.205H17v.369a4.259,4.259,0,0,0,4.255,4.255h9.726a4.259,4.259,0,0,0,4.255-4.255V15.617A4.259,4.259,0,0,0,30.982,11.362ZM26.634,4.805h0l0,0h0l0,0,0,0h0l0,0,0,0H23.915V1.931ZM6.524,21.514H14.47a.751.751,0,1,1,0,1.5H6.524a.751.751,0,1,1,0-1.5Zm0,2.594H14.47a.751.751,0,1,1,0,1.5H8.982a4.447,4.447,0,0,0-.691-.25A4.6,4.6,0,0,0,7.2,25.2c-.107,0-.214,0-.321,0H5.857a.738.738,0,0,1-.084-.343A.752.752,0,0,1,6.524,24.108Zm8.7,3.345a.752.752,0,0,1-.751.751H11.414a4.594,4.594,0,0,0-.927-1.5H14.47A.752.752,0,0,1,15.221,27.452Zm-11.353-.98a4.712,4.712,0,0,0-.86,1.1H2.371A3.606,3.606,0,0,1,3.868,26.472ZM1.791,28.6h.8a4.714,4.714,0,0,0-.149.818H1.6A3.588,3.588,0,0,1,1.791,28.6Zm.088,2.707a3.585,3.585,0,0,1-.257-.864h.834a4.121,4.121,0,0,0,.2.864ZM2.56,32.33c.335,0,.53,0,.575,0a4.611,4.611,0,0,0,.734.889A3.608,3.608,0,0,1,2.56,32.33Zm4.659,1.134a3.622,3.622,0,1,1,2.295-6.287A3.619,3.619,0,0,1,7.219,33.463Zm7.251-.072H10.062a4.678,4.678,0,0,0,1.173-1.5H14.47a.751.751,0,0,1,0,1.5Zm.745-3.253a.751.751,0,0,1-.745.659H11.612a4.692,4.692,0,0,0,.066-1.5H14.47A.751.751,0,0,1,15.214,30.138ZM17,29.046h-.986a1.812,1.812,0,0,0-.238-.3,1.839,1.839,0,0,0,0-2.594,1.839,1.839,0,0,0,0-2.594,1.844,1.844,0,0,0-1.308-3.14H8.29V3.195a2.105,2.105,0,0,1,2.1-2.1H22.823V5.37a.546.546,0,0,0,.546.546h3.949c.114.442.044.3.065,5.446H21.256A4.259,4.259,0,0,0,17,15.617Zm17.211,1.461a3.234,3.234,0,0,1-3.231,3.231H21.256a3.235,3.235,0,0,1-3.231-3.231V15.617a3.235,3.235,0,0,1,3.231-3.231h9.726a3.234,3.234,0,0,1,3.231,3.231v14.89Z" transform="translate(-0.549)" fill="#fcfcfc"/>
      </g>
    </g>
    <g id="Group_69987" data-name="Group 69987" transform="translate(19.573 13.547)">
      <g id="Group_69986" data-name="Group 69986">
        <path id="Path_75160" data-name="Path 75160" d="M292.129,199.538h-9.653a1.719,1.719,0,0,0-1.719,1.719v1.874a1.719,1.719,0,0,0,1.719,1.719h1.857a.512.512,0,1,0,0-1.024h-1.857a.7.7,0,0,1-.695-.695v-1.874a.7.7,0,0,1,.695-.695h9.653a.7.7,0,0,1,.695.695v1.874a.7.7,0,0,1-.695.695h-5.588a.512.512,0,0,0,0,1.024h5.588a1.721,1.721,0,0,0,1.719-1.719v-1.874A1.721,1.721,0,0,0,292.129,199.538Z" transform="translate(-280.757 -199.538)" fill="#fcfcfc"/>
      </g>
    </g>
    <g id="Group_69989" data-name="Group 69989" transform="translate(19.573 24.335)">
      <g id="Group_69988" data-name="Group 69988">
        <path id="Path_75161" data-name="Path 75161" d="M283.578,358.428h-1.749a1.073,1.073,0,0,0-1.072,1.072v1.749a1.073,1.073,0,0,0,1.072,1.072h1.749a1.073,1.073,0,0,0,1.072-1.072V359.5A1.073,1.073,0,0,0,283.578,358.428Zm.048,2.82a.048.048,0,0,1-.048.048h-1.749a.048.048,0,0,1-.048-.048V359.5a.048.048,0,0,1,.048-.048h1.749a.048.048,0,0,1,.048.048Z" transform="translate(-280.757 -358.428)" fill="#fcfcfc"/>
      </g>
    </g>
    <g id="Group_69991" data-name="Group 69991" transform="translate(28.827 19.762)">
      <g id="Group_69990" data-name="Group 69990">
        <path id="Path_75162" data-name="Path 75162" d="M419.876,291.068h-1.749a1.073,1.073,0,0,0-1.072,1.072v1.749a1.073,1.073,0,0,0,1.072,1.072h1.749a1.073,1.073,0,0,0,1.072-1.072V292.14A1.073,1.073,0,0,0,419.876,291.068Zm.048,2.82a.048.048,0,0,1-.048.048h-1.749a.048.048,0,0,1-.048-.048c.021-1.73-.044-1.8.048-1.8h1.749a.048.048,0,0,1,.048.048Z" transform="translate(-417.056 -291.068)" fill="#fcfcfc"/>
      </g>
    </g>
    <g id="Group_69993" data-name="Group 69993" transform="translate(19.573 19.762)">
      <g id="Group_69992" data-name="Group 69992">
        <path id="Path_75163" data-name="Path 75163" d="M283.578,291.068h-1.749a1.073,1.073,0,0,0-1.072,1.072v1.749a1.073,1.073,0,0,0,1.072,1.072h1.749a1.073,1.073,0,0,0,1.072-1.072V292.14A1.073,1.073,0,0,0,283.578,291.068Zm.048,2.82a.048.048,0,0,1-.048.048h-1.749a.048.048,0,0,1-.048-.048V292.14a.048.048,0,0,1,.048-.048h1.749a.048.048,0,0,1,.048.048Z" transform="translate(-280.757 -291.068)" fill="#fcfcfc"/>
      </g>
    </g>
    <g id="Group_69995" data-name="Group 69995" transform="translate(19.572 28.684)">
      <g id="Group_69994" data-name="Group 69994">
        <path id="Path_75164" data-name="Path 75164" d="M284.355,422.852a1.071,1.071,0,0,0-.8-.361H281.8a1.068,1.068,0,0,0-.8.361,1.464,1.464,0,0,0-.27,1.092v1.367a1.073,1.073,0,0,0,1.072,1.072h1.75a1.073,1.073,0,0,0,1.072-1.072v-1.367A1.476,1.476,0,0,0,284.355,422.852Zm-.8,2.507c-1.728-.021-1.8.044-1.8-.048,0-1.852-.021-1.8.048-1.8h1.75c.084,0,.032.117.048.429A7.281,7.281,0,0,1,283.553,425.359Z" transform="translate(-280.73 -422.491)" fill="#fcfcfc"/>
      </g>
    </g>
    <g id="Group_69997" data-name="Group 69997" transform="translate(28.827 24.335)">
      <g id="Group_69996" data-name="Group 69996">
        <path id="Path_75165" data-name="Path 75165" d="M419.6,358.428H418.4a1.345,1.345,0,0,0-1.343,1.343V365.2a1.468,1.468,0,0,0,1.466,1.467h.96a1.468,1.468,0,0,0,1.466-1.467v-5.431A1.345,1.345,0,0,0,419.6,358.428Zm-.123,7.218h-.96a.443.443,0,0,1-.442-.443v-5.431a.32.32,0,0,1,.319-.319H419.6a.32.32,0,0,1,.319.319V365.2h0A.443.443,0,0,1,419.481,365.646Z" transform="translate(-417.055 -358.428)" fill="#fcfcfc"/>
      </g>
    </g>
    <g id="Group_70001" data-name="Group 70001" transform="translate(24.171 28.684)">
      <g id="Group_70000" data-name="Group 70000">
        <path id="Path_75167" data-name="Path 75167" d="M352.04,422.791a1.067,1.067,0,0,0-.743-.3h-1.749a1.071,1.071,0,0,0-.8.361,1.47,1.47,0,0,0-.27,1.092v1.367a1.073,1.073,0,0,0,1.072,1.072H351.3a1.072,1.072,0,0,0,1.071-1.072v-1.75A1.068,1.068,0,0,0,352.04,422.791Zm-.743,2.568c-1.728-.021-1.8.044-1.8-.048v-1.75a.048.048,0,0,1,.048-.047H351.3a.047.047,0,0,1,.047.047C351.324,425.294,351.388,425.359,351.3,425.359Z" transform="translate(-348.474 -422.491)" fill="#fcfcfc"/>
      </g>
    </g>
    <g id="Group_70003" data-name="Group 70003" transform="translate(24.173 19.762)">
      <g id="Group_70002" data-name="Group 70002">
        <path id="Path_75168" data-name="Path 75168" d="M351.32,291.068h-1.749a1.073,1.073,0,0,0-1.072,1.072v1.749a1.073,1.073,0,0,0,1.072,1.072h1.749a1.056,1.056,0,0,0,.39-.074,1.073,1.073,0,0,0,.681-1V292.14A1.073,1.073,0,0,0,351.32,291.068Zm0,2.868h-1.749a.048.048,0,0,1-.048-.048V292.14c0-.092.063-.027,1.8-.048a.047.047,0,0,1,.047.048v1.749h0A.047.047,0,0,1,351.32,293.936Z" transform="translate(-348.499 -291.068)" fill="#fcfcfc"/>
      </g>
    </g>
    <g id="Group_70005" data-name="Group 70005" transform="translate(24.173 24.335)">
      <g id="Group_70004" data-name="Group 70004">
        <path id="Path_75169" data-name="Path 75169" d="M351.71,358.5a1.055,1.055,0,0,0-.39-.074h-1.749A1.073,1.073,0,0,0,348.5,359.5v1.749a1.073,1.073,0,0,0,1.072,1.072h1.749a1.072,1.072,0,0,0,1.071-1.072V359.5A1.073,1.073,0,0,0,351.71,358.5Zm-.343,2.747a.047.047,0,0,1-.047.048h-1.749a.048.048,0,0,1-.048-.048V359.5a.048.048,0,0,1,.048-.048h1.749a.047.047,0,0,1,.047.048Z" transform="translate(-348.499 -358.428)" fill="#fcfcfc"/>
      </g>
    </g>
    <g id="Group_70007" data-name="Group 70007" transform="translate(22.241 6.996)">
      <g id="Group_70006" data-name="Group 70006">
        <path id="Path_75170" data-name="Path 75170" d="M321.845,103.041h-1.286a.512.512,0,1,0,0,1.024h1.286a.512.512,0,0,0,0-1.024Z" transform="translate(-320.047 -103.041)" fill="#fcfcfc"/>
      </g>
    </g>
    <g id="Group_70009" data-name="Group 70009" transform="translate(11.115 6.996)">
      <g id="Group_70008" data-name="Group 70008">
        <path id="Path_75171" data-name="Path 75171" d="M165.76,103.041h-9.078a.512.512,0,1,0,0,1.024h9.078a.512.512,0,1,0,0-1.024Z" transform="translate(-156.17 -103.041)" fill="#fcfcfc"/>
      </g>
    </g>
    <g id="Group_70011" data-name="Group 70011" transform="translate(11.115 9.537)">
      <g id="Group_70010" data-name="Group 70010">
        <path id="Path_75172" data-name="Path 75172" d="M158.309,140.472h-1.627a.512.512,0,1,0,0,1.024h1.627a.512.512,0,1,0,0-1.024Z" transform="translate(-156.17 -140.472)" fill="#fcfcfc"/>
      </g>
    </g>
    <g id="Group_70013" data-name="Group 70013" transform="translate(14.79 9.537)">
      <g id="Group_70012" data-name="Group 70012">
        <path id="Path_75173" data-name="Path 75173" d="M219.548,140.472h-8.737a.512.512,0,1,0,0,1.024h8.737a.512.512,0,0,0,0-1.024Z" transform="translate(-210.299 -140.472)" fill="#fcfcfc"/>
      </g>
    </g>
  </g>
</svg>
