<svg id="technical-support" xmlns="http://www.w3.org/2000/svg" width="23.795" height="23.795" viewBox="0 0 23.795 23.795">
  <path id="Path_28883" data-name="Path 28883" d="M4.185,18.4a1.94,1.94,0,0,0-.937.239A10.973,10.973,0,0,1,14.082,1.146a.465.465,0,0,0,.184-.911A11.986,11.986,0,0,0,11.9,0,11.9,11.9,0,0,0,2.56,19.27,1.953,1.953,0,1,0,4.185,18.4Zm.723,2.675a1.022,1.022,0,1,1,.3-.723A1.015,1.015,0,0,1,4.908,21.076Zm0,0" transform="translate(0 0.001)" fill="#2aabe3"/>
  <path id="Path_28884" data-name="Path 28884" d="M209.54,35.085a1.948,1.948,0,1,0-.687.631,10.973,10.973,0,0,1-10.813,17.5.465.465,0,1,0-.182.912,11.994,11.994,0,0,0,2.346.231,11.9,11.9,0,0,0,9.337-19.272Zm-2.347-.359a1.023,1.023,0,1,1,.723.3A1.016,1.016,0,0,1,207.193,34.726Zm0,0" transform="translate(-188.306 -30.561)" fill="#2aabe3"/>
  <path id="Path_28885" data-name="Path 28885" d="M80.526,90.452a.465.465,0,0,0,.465.465H83.9a.465.465,0,0,0,.465-.465v-.9a7.278,7.278,0,0,0,1.744-.723l.636.636a.465.465,0,0,0,.657,0l2.054-2.055a.465.465,0,0,0,0-.657l-.635-.635a7.278,7.278,0,0,0,.723-1.744h.9a.465.465,0,0,0,.465-.465V81a.465.465,0,0,0-.465-.465h-.9a7.279,7.279,0,0,0-.723-1.744l.632-.632a.465.465,0,0,0,0-.658l-2.056-2.054a.465.465,0,0,0-.657,0l-.631.631a7.277,7.277,0,0,0-1.744-.723v-.893A.465.465,0,0,0,83.9,74H80.99a.465.465,0,0,0-.465.465v.893a7.272,7.272,0,0,0-1.744.723l-.631-.631a.465.465,0,0,0-.657,0L75.438,77.5a.465.465,0,0,0,0,.657l.632.632a7.277,7.277,0,0,0-.723,1.744h-.9a.465.465,0,0,0-.465.465l0,2.906a.465.465,0,0,0,.465.465h.9a7.278,7.278,0,0,0,.723,1.744l-.635.635a.465.465,0,0,0,0,.657l2.054,2.055a.465.465,0,0,0,.329.136h0a.465.465,0,0,0,.329-.136l.636-.636a7.284,7.284,0,0,0,1.744.723Zm-1.562-2.6a.465.465,0,0,0-.581.062l-.566.566-1.4-1.4.565-.566a.465.465,0,0,0,.062-.581,6.361,6.361,0,0,1-.88-2.125.465.465,0,0,0-.454-.367h-.8V81.466h.8a.465.465,0,0,0,.454-.367,6.362,6.362,0,0,1,.88-2.124.465.465,0,0,0-.062-.581l-.562-.562,1.4-1.4.561.561a.465.465,0,0,0,.581.062,6.359,6.359,0,0,1,2.124-.88.465.465,0,0,0,.367-.454v-.794h1.976v.794a.465.465,0,0,0,.367.454,6.364,6.364,0,0,1,2.124.88A.464.464,0,0,0,86.5,77l.561-.561,1.4,1.4-.562.562a.465.465,0,0,0-.062.581,6.366,6.366,0,0,1,.88,2.124.465.465,0,0,0,.454.367h.8v1.976h-.8a.465.465,0,0,0-.454.367,6.36,6.36,0,0,1-.88,2.124.465.465,0,0,0,.062.581l.565.565-1.4,1.4-.566-.566a.465.465,0,0,0-.581-.062,6.366,6.366,0,0,1-2.124.88.465.465,0,0,0-.367.454v.8H81.455v-.8a.465.465,0,0,0-.367-.454A6.362,6.362,0,0,1,78.964,87.851Zm0,0" transform="translate(-70.546 -70.561)" fill="#2aabe3"/>
  <path id="Path_28886" data-name="Path 28886" d="M181.052,177.211a3.84,3.84,0,1,0-3.84,3.84A3.844,3.844,0,0,0,181.052,177.211Zm-6.751,0a2.911,2.911,0,1,1,2.911,2.911A2.914,2.914,0,0,1,174.3,177.211Zm0,0" transform="translate(-165.314 -165.314)" fill="#2aabe3"/>
  <path id="Path_28887" data-name="Path 28887" d="M338.543,18.739a.465.465,0,1,0-.328-.136A.468.468,0,0,0,338.543,18.739Zm0,0" transform="translate(-322.366 -16.981)" fill="#2aabe3"/>
  <path id="Path_28888" data-name="Path 28888" d="M154.824,474.359a.465.465,0,1,0,.329.136A.468.468,0,0,0,154.824,474.359Zm0,0" transform="translate(-147.185 -452.313)" fill="#2aabe3"/>
</svg>
