<svg xmlns="http://www.w3.org/2000/svg" width="169.694" height="152.33" viewBox="0 0 169.694 152.33">
  <g id="undraw_Mail_sent_re_0ofv" transform="translate(0 0)">
    <path id="Path_29032" data-name="Path 29032" d="M487.419,252.416a.3.3,0,0,1-.17-.053l-82.334-57.34a1.493,1.493,0,0,0-1.705,0l-81.741,57.336a.3.3,0,1,1-.342-.488l81.741-57.336a2.091,2.091,0,0,1,2.388,0l82.334,57.34a.3.3,0,0,1-.17.542Z" transform="translate(-319.213 -194.163)" fill="#3f3d56"/>
    <path id="Path_29033" data-name="Path 29033" d="M23.264,66.129l78-57.81,78.6,61.924-74.576,44.21L64.8,105.223Z" transform="translate(-16.338 -5.843)" fill="#e6e6e6"/>
    <path id="Path_29034" data-name="Path 29034" d="M394.1,642.21H355.568a1.8,1.8,0,0,1,0-3.6H394.1a1.8,1.8,0,0,1,0,3.6Z" transform="translate(-342.226 -506.294)" fill="#0c91be"/>
    <path id="Path_29035" data-name="Path 29035" d="M369.394,616.21H355.568a1.8,1.8,0,0,1,0-3.6h13.826a1.8,1.8,0,1,1,0,3.6Z" transform="translate(-342.226 -488.034)" fill="#0c91be"/>
    <path id="Path_29036" data-name="Path 29036" d="M488.461,305.031a2.252,2.252,0,0,1-.854-.167L439.5,284.9V222.421a2.086,2.086,0,0,1,2.084-2.084h92.29a2.086,2.086,0,0,1,2.084,2.084v62.525l-.09.039-46.526,19.869A2.266,2.266,0,0,1,488.461,305.031Z" transform="translate(-402.435 -212.545)" fill="#fff"/>
    <path id="Path_29037" data-name="Path 29037" d="M488.11,304.828a2.4,2.4,0,0,1-.911-.178l-48.2-20V222.07a2.235,2.235,0,0,1,2.233-2.233h92.29a2.235,2.235,0,0,1,2.233,2.233v62.623l-46.707,19.946A2.414,2.414,0,0,1,488.11,304.828ZM439.6,284.253,487.426,304.1a1.821,1.821,0,0,0,1.39-.008L535.16,284.3V222.07a1.639,1.639,0,0,0-1.637-1.637h-92.29a1.639,1.639,0,0,0-1.637,1.637Z" transform="translate(-402.084 -212.194)" fill="#3f3d56"/>
    <path id="Path_29038" data-name="Path 29038" d="M482.61,387.837h-.06l-34.177,14.594L401.613,422.4a1.508,1.508,0,0,1-1.155.006l-48.244-20.015L317.2,387.861l-.053-.024h-.06A2.086,2.086,0,0,0,315,389.921v90.5a2.086,2.086,0,0,0,2.084,2.084H482.61a2.086,2.086,0,0,0,2.084-2.084v-90.5A2.086,2.086,0,0,0,482.61,387.837Zm1.489,92.588a1.489,1.489,0,0,1-1.489,1.489H317.084a1.489,1.489,0,0,1-1.489-1.489v-90.5a1.492,1.492,0,0,1,1.432-1.489l35.186,14.6,48.015,19.923a2.12,2.12,0,0,0,1.62-.009l46.526-19.869,34.3-14.644a1.493,1.493,0,0,1,1.429,1.489Z" transform="translate(-315 -330.179)" fill="#3f3d56"/>
    <path id="Path_29039" data-name="Path 29039" d="M539.138,303.69a8.187,8.187,0,0,1-4.926-1.636l-.088-.066-18.551-14.2A8.242,8.242,0,1,1,525.6,274.7l12.016,9.213,28.395-37.031a8.241,8.241,0,0,1,11.555-1.525l-.177.24.181-.236a8.251,8.251,0,0,1,1.525,11.555l-33.4,43.557a8.245,8.245,0,0,1-6.557,3.216Z" transform="translate(-453.593 -228.922)" fill="#0dc450"/>
  </g>
</svg>
