<svg xmlns="http://www.w3.org/2000/svg" width="20.5" height="20.5" viewBox="0 0 20.5 20.5" >
    <path id="Vector" d="M8.883,0H.683A.683.683,0,0,0,0,.683v8.2a.683.683,0,0,0,.683.683h8.2a.683.683,0,0,0,.683-.683V.683A.683.683,0,0,0,8.883,0ZM8.2,8.2H1.367V1.367H8.2Zm7.517,1.367a4.783,4.783,0,1,0-3.382-1.4A4.783,4.783,0,0,0,15.717,9.567Zm0-8.2a3.417,3.417,0,1,1-2.416,1,3.417,3.417,0,0,1,2.416-1ZM8.883,10.933H.683A.683.683,0,0,0,0,11.617v8.2a.683.683,0,0,0,.683.683h8.2a.683.683,0,0,0,.683-.683v-8.2a.683.683,0,0,0-.683-.683Zm-.683,8.2H1.367V12.3H8.2Zm11.617-8.2h-8.2a.683.683,0,0,0-.683.683v8.2a.683.683,0,0,0,.683.683h8.2a.683.683,0,0,0,.683-.683v-8.2a.683.683,0,0,0-.683-.683Zm-.683,8.2H12.3V12.3h6.833Z"/>
</svg>
